<svg width="98" height="145" viewBox="0 0 98 145" fill="none" xmlns="http://www.w3.org/2000/svg">
<g clip-path="url(#clip0_481_12887)">
<path d="M90.9 95.9846L78.9 134.012C78 136.813 76 138.752 73.6 139.506L62.7 143.815C64.5 143.277 66 141.984 67 140.26C67.3 139.722 67.6 139.075 67.8 138.429L79.8 100.401C83.3 89.1978 79.3 76.8093 70.1 70.3457L46 53.3249C41.4 50.0931 36.2 48.8004 31.2 49.2313C29.7 49.339 28.1 49.6622 26.6 50.0931L37 45.9995C43.4 43.9527 50.7 44.7067 56.9 49.1235L81.1 66.0366C90.5 72.3925 94.5 84.781 90.9 95.9846Z" fill="#112E45"/>
<path d="M91 95.9845L82 124.855L79.7 132.073C79.3 133.258 79 134.551 78.4 135.628C77.8 136.705 77 137.782 76 138.429C75.5 138.752 75 139.075 74.4 139.398L72.7 140.045L69.4 141.337L62.8 143.923L62.6 143.384C65 142.522 67 140.368 67.7 137.782L70.2 129.811L75.2 113.759L77.7 105.788L79 101.802C79.4 100.509 79.9 99.1085 80.1 97.8158C81.3 92.4295 80.8 86.6122 78.6 81.5491C77.5 79.0714 76.1 76.7014 74.3 74.6546C73.4 73.6851 72.5 72.7155 71.4 71.8537C70.4 70.9919 69.3 70.2378 68.2 69.4837L55 60.2192L48.4 55.587C46.2 54.0788 44.1 52.4629 41.7 51.3856C36.9 49.2311 31.5 48.9079 26.5 50.3084C26.3 50.3084 26.2 50.3084 26.1 50.0929C26.1 49.8775 26.1 49.7697 26.3 49.662C29.9 48.2616 33.5 46.7534 37.2 45.4607C41 44.2757 45 44.168 48.8 45.0298C50.7 45.4607 52.6 46.2148 54.3 47.0766C56.1 47.9384 57.6 49.2311 59.3 50.3084L69 57.0952L78.7 63.8819C80.3 65.0669 82 66.0365 83.5 67.4369C85 68.7296 86.3 70.3455 87.5 71.9614C89.8 75.301 91.3 79.2868 91.9 83.3804C92.6 87.7972 92.2 91.9986 91 95.9845ZM90.9 95.8767C92.1 91.9986 92.5 87.6895 91.9 83.5959C91.3 79.5023 89.8 75.6241 87.5 72.2846C86.4 70.6687 85 69.1605 83.5 67.7601C82 66.4674 80.4 65.3901 78.7 64.2051L69 57.6338L59.3 50.9547C57.7 49.8775 56.1 48.6925 54.4 47.7229C52.7 46.8611 50.9 46.2148 49 45.7839C45.3 44.922 41.3 45.0298 37.7 46.2148C34.1 47.6152 30.5 49.0157 26.9 50.5238L26.7 49.8775C31.8 48.3693 37.4 48.6925 42.3 50.847C43.5 51.3856 44.7 52.032 45.8 52.7861L49 54.9406L55.6 59.5729L68.8 68.7296C69.9 69.4837 71 70.2378 72.1 71.0996C73.2 71.9614 74.1 72.931 75 74.0082C76.8 76.055 78.3 78.5327 79.4 81.1182C81.6 86.2891 82.1 92.3218 80.9 97.9235C80.6 99.324 80.2 100.617 79.7 102.017L78.4 106.003L75.9 113.975L70.8 130.026L68.3 137.998C67.5 140.799 65.4 143.061 62.8 143.923C62.7 143.923 62.5 143.923 62.5 143.707C62.5 143.6 62.5 143.384 62.7 143.384L69.3 140.799L72.6 139.506L74.3 138.86C74.8 138.644 75.3 138.321 75.8 137.998C76.7 137.351 77.6 136.382 78.1 135.305C78.7 134.227 79 133.042 79.4 131.857L81.7 124.64L90.9 95.8767Z" fill="#112E45"/>
<path d="M76.4999 81.549L84.5999 77.3477L77.0999 82.734L76.4999 81.549Z" fill="white"/>
<path d="M78.2999 87.7972L86.4999 83.7036L78.8999 88.9822L78.2999 87.7972Z" fill="white"/>
<path d="M78.5999 94.3684L86.8999 90.4902L79.1999 95.5534L78.5999 94.3684Z" fill="white"/>
<path d="M77.3999 100.94L85.7999 97.2769L77.9999 102.232L77.3999 100.94Z" fill="white"/>
<path d="M75.4999 107.296L83.8999 103.849L76.0999 108.589L75.4999 107.296Z" fill="white"/>
<path d="M73.5999 113.652L82.0999 110.312L74.0999 114.944L73.5999 113.652Z" fill="white"/>
<path d="M71.7 119.9L80.2 116.883L72.2 121.192L71.7 119.9Z" fill="white"/>
<path d="M69.7999 126.255L78.3999 123.347L70.1999 127.548L69.7999 126.255Z" fill="white"/>
<path d="M67.7999 132.612L76.4999 129.918L68.2999 133.904L67.7999 132.612Z" fill="white"/>
<path d="M65.8999 138.86L74.6999 136.382L66.2999 140.26L65.8999 138.86Z" fill="white"/>
<path d="M62.6999 144.246C62.4999 144.246 62.2999 144.138 62.1999 143.815C62.0999 143.492 62.2999 143.277 62.4999 143.169H62.5999C62.8999 143.061 63.0999 143.277 63.1999 143.492C63.2999 143.815 63.0999 144.031 62.8999 144.138H62.7999C62.7999 144.246 62.6999 144.246 62.6999 144.246Z" fill="#112E45"/>
<path d="M46.1999 93.6144C45.7999 93.6144 45.3999 93.7221 44.9999 93.7221L44.1999 117.314L26.8999 105.141L38.4999 89.413C37.5999 87.9049 36.8999 86.0735 36.5999 84.1344C35.6999 78.1017 38.4999 72.6077 42.9999 71.8536C47.3999 71.0995 51.7999 75.3009 52.6999 81.3335C53.4999 87.2585 50.6999 92.7526 46.1999 93.6144Z" fill="#00E497"/>
<path d="M46.2 93.6144L45 93.7221C44.9 97.6003 44.8 101.586 44.8 105.572C44.8 107.511 44.8 109.558 44.7 111.497C44.6 113.436 44.6 115.375 44.6 117.422C44.6 117.637 44.4 117.853 44.1 117.853C44 117.853 43.9 117.853 43.9 117.745L39.6 114.729L35.3 111.605C32.5 109.558 29.6 107.403 26.7 105.464C26.6 105.464 26.6 105.357 26.7 105.249L29.6 101.263L32.5 97.2771L38.2 89.3053V89.844C35.8 86.0735 35.3 81.1181 36.9 76.809C37.7 74.7622 39.2 72.8232 41.3 71.8536C43.3 70.8841 45.7 71.2073 47.6 72.2845C49.5 73.3618 50.9 75.1931 51.8 77.2399C52.7 79.2868 53.1 81.549 53 83.8113C52.9 86.0735 52.3 88.2281 51.2 90.0594C50.1 91.8908 48.3 93.2912 46.2 93.6144ZM46.2 93.5067C48.2 93.1835 49.9 91.6753 51 89.844C52.1 88.0126 52.5 85.8581 52.5 83.7035C52.5 81.549 52 79.3945 51.1 77.5631C50.2 75.7318 48.8 74.1159 47.1 73.1463C45.4 72.1768 43.4 71.9613 41.7 72.8232C40 73.5772 38.6 75.3009 37.8 77.1322C36.2 80.9027 36.7 85.6426 38.8 89.1976C38.9 89.3053 38.9 89.5208 38.8 89.7362L32.9 97.4926L30 101.371L27 105.249V105.033C29.9 107.08 32.8 109.019 35.7 110.958L40.1 113.867L44.4 116.883L43.7 117.314C43.8 115.375 43.9 113.436 43.9 111.389C44 109.45 44.1 107.511 44.2 105.464C44.4 101.586 44.7 97.6003 44.8 93.7221C44.8 93.7221 44.8 93.6144 44.9 93.6144L46.2 93.5067Z" fill="#112E45"/>
<path d="M79.9999 100.294C76.4999 111.282 73.3999 122.27 70.0999 133.366L68.8999 137.459L68.5999 138.536C68.4999 138.86 68.3999 139.291 68.1999 139.614C67.8999 140.368 67.4999 141.014 66.9999 141.661C65.0999 144.138 61.9999 145.431 59.0999 145C57.5999 144.785 56.1999 144.138 54.9999 143.276L51.5999 140.906L44.8999 136.166L31.4999 126.471L24.7999 121.623L18.0999 116.883C13.5999 113.652 9.09994 110.528 4.59994 107.403C3.49994 106.649 2.29994 105.68 1.49994 104.495C0.699939 103.31 0.199939 101.802 -6.07595e-05 100.294C-0.200061 98.7854 0.0999393 97.1695 0.499939 95.769L1.79994 91.5677L6.79994 75.0855L9.29994 66.7906C10.0999 63.9897 11.3999 61.1888 13.0999 58.8188C16.3999 53.9711 21.2999 50.4161 26.6999 48.9079C32.0999 47.292 37.9999 47.8307 43.0999 50.3084C44.3999 50.9547 45.5999 51.7088 46.7999 52.4629L50.1999 54.8329C52.4999 56.4488 54.6999 57.957 56.8999 59.5729C61.3999 62.8047 65.7999 66.0365 70.2999 69.2683C74.8999 72.5001 78.3999 77.4555 80.0999 83.0573C81.7999 88.6591 81.7999 94.7995 79.9999 100.294ZM79.7999 100.186C80.5999 97.4926 81.0999 94.584 80.9999 91.6754C80.8999 88.7668 80.3999 85.9659 79.4999 83.2727C77.5999 77.8864 73.9999 73.3619 69.4999 70.561C64.8999 67.5446 60.3999 64.4206 55.7999 61.4042C53.4999 59.8961 51.2999 58.2802 48.9999 56.772L45.5999 54.402C44.4999 53.6479 43.3999 53.0016 42.1999 52.4629C37.4999 50.2007 32.0999 49.7698 27.0999 51.1702C22.0999 52.5706 17.5999 55.6947 14.4999 60.1115C12.8999 62.3738 11.6999 64.8515 10.8999 67.4369L8.19994 75.6241L2.89994 91.9986L1.49994 96.0922C0.999939 97.3849 0.799939 98.7854 0.899939 100.078C0.999939 101.479 1.39994 102.771 2.19994 103.956C2.89994 105.141 3.89994 106.003 5.09994 106.757C9.59994 109.881 14.0999 113.113 18.5999 116.237L25.3999 120.869L32.1999 125.502L45.8999 134.658L52.6999 139.291L56.0999 141.661C56.6999 142.091 57.0999 142.415 57.6999 142.63C58.1999 142.846 58.7999 143.061 59.3999 143.169C61.7999 143.6 64.2999 142.522 65.8999 140.583C66.2999 140.045 66.5999 139.506 66.8999 138.967C66.9999 138.644 67.1999 138.429 67.2999 138.106L67.5999 137.136L68.9999 133.042C72.5999 122.054 76.3999 111.174 79.7999 100.186Z" fill="#112E45"/>
<path d="M17 108.588C14.9 107.403 12.9 106.111 10.9 104.71C9.79998 103.956 8.99998 102.879 8.49998 101.694C7.99998 100.401 7.79998 99.0007 7.99998 97.708C8.09998 97.0616 8.29998 96.3076 8.49998 95.7689L8.99998 94.0453L10.2 90.4903C11.1 88.1203 11.9 85.7504 12.8 83.3804C12.8 83.3804 12.8 83.3804 12.9 83.3804C12.9 83.3804 12.9 83.3804 12.9 83.4881C12.3 85.9658 11.6 88.3358 10.9 90.8135L9.89998 94.4762C9.59998 95.6612 9.09998 96.9539 8.89998 98.0312C8.59998 100.401 9.59998 102.771 11.3 104.172C13.3 105.464 15.2 106.972 17 108.588C17.1 108.588 17.1 108.588 17 108.588C17.1 108.588 17 108.588 17 108.588Z" fill="#112E45"/>
<path fill-rule="evenodd" clip-rule="evenodd" d="M72.9999 50.8469C72.6999 50.7391 72.0999 50.8469 71.8999 50.9546C71.8999 50.9546 71.8999 51.2778 72.0999 51.601C72.1999 51.9241 72.5999 52.7859 72.7999 53.6478C73.2999 55.1559 73.4999 55.4791 73.8999 55.3714C74.0999 55.2637 74.0999 54.9405 73.7999 53.54C73.5999 52.5705 73.4999 51.7087 73.4999 51.4932C73.4999 51.17 73.3999 51.0623 72.9999 50.8469ZM69.0999 53.2169C68.1999 53.2169 68.1999 53.3246 69.4999 54.6173C71.5999 56.6641 71.8999 56.1255 69.9999 53.7555C69.5999 53.3246 69.4999 53.2169 69.0999 53.2169ZM92.3999 63.02C92.1999 63.3432 91.6999 63.8818 91.1999 64.4204C89.6999 65.9286 89.7999 66.3595 91.4999 65.0668C92.7999 64.0972 93.3999 63.3432 93.5999 62.6968C93.6999 61.7273 92.9999 61.9427 92.3999 63.02ZM89.2999 68.1908C89.0999 68.6218 89.2999 68.6218 91.4999 68.514C93.2999 68.4063 94.0999 68.1908 94.4999 67.6522C94.9999 66.7904 94.1999 66.575 92.8999 67.0059C92.4999 67.1136 91.5999 67.329 90.8999 67.5445C89.7999 67.7599 89.4999 67.7599 89.2999 68.1908ZM90.0999 70.9917C89.9999 71.2072 90.1999 71.3149 90.7999 71.7458L92.5999 73.0385C93.1999 73.5772 93.3999 72.9308 93.5999 71.8535C93.6999 71.4226 92.9999 70.9917 91.8999 70.6686C91.0999 70.5608 90.4999 70.1299 90.0999 70.9917Z" fill="#00E497"/>
<path d="M64.4999 75.4084C67.0999 77.0243 69.3999 79.3943 70.9999 82.3029C72.5999 85.1038 73.5999 88.4433 73.6999 91.7829C73.7999 93.3988 73.5999 95.1224 73.3999 96.7383C73.0999 98.3542 72.4999 99.9701 71.9999 101.478C70.8999 104.495 69.8999 107.619 68.7999 110.635C68.7999 110.635 68.7999 110.635 68.6999 110.635C68.6999 110.635 68.6999 110.635 68.6999 110.527C69.4999 107.403 70.4999 104.279 71.2999 101.155C72.2999 98.031 72.8999 94.9069 72.6999 91.7829C72.6999 91.0288 72.5999 90.167 72.4999 89.4129C72.2999 88.6588 72.1999 87.9047 71.9999 87.1506C71.5999 85.6425 70.9999 84.1343 70.2999 82.7338C69.5999 81.3334 68.6999 80.0407 67.7999 78.748L66.9999 77.7784C66.6999 77.4552 66.3999 77.2398 66.1999 76.9166C65.6999 76.378 64.9999 75.9471 64.4999 75.4084C64.3999 75.4084 64.3999 75.4084 64.4999 75.4084C64.4999 75.3007 64.4999 75.3007 64.4999 75.4084Z" fill="#112E45"/>
<path d="M67.1 116.129C67.1 117.422 66.8 118.607 66.3 119.792C66.1 120.331 65.7 120.869 65.5 121.408C65.3 121.947 65.2 122.593 65.1 123.239C64.9 124.424 64.6 125.609 64.2 126.794C63.8 127.979 63.3 129.057 62.6 130.134C62.6 130.134 62.6 130.134 62.5 130.134C62.6 128.841 62.8 127.656 63.1 126.471C63.5 125.286 63.9 124.209 64.4 123.024C64.7 122.485 64.9 121.947 65.1 121.3C65.3 120.654 65.3 120.115 65.4 119.469C65.8 118.284 66.3 117.207 67.1 116.129C67 116.129 67 116.129 67.1 116.129Z" fill="#112E45"/>
<path d="M84 71.4225C83.3 73.4694 79.7 74.7621 75.8 73.1462C73.5 72.3921 70.7 70.6685 71.4 68.5139L71.8 67.2212L72.7 64.7435C73.1 63.8817 84.1 27.901 84.4 27.0392C85.8 22.6224 83.8 18.6365 82.7 16.5897C80.9 13.4656 73.6 10.8802 69.6 11.6343C67.2 12.0652 66 14.2197 65.1 16.482C64.9 16.9129 55.3 48.0459 55.2 48.4768C54.8 49.554 54.6 50.6313 54.3 51.3854C54 52.1395 53.2 52.7858 52 53.109C50 53.7554 47.5 53.9708 45 53.0013C42.7 52.2472 41.3 51.0622 42 49.0154C42.6 47.1841 43.2 44.9218 43.9 42.5518C44.2 41.5823 44.5 40.6127 44.8 39.5355C46.4 34.4723 49.5 16.6974 56.9 6.67886C60.6 1.61571 65.4 -0.00018926 71.7 0.107537C83.8 0.107537 88.6 3.55479 94 12.7115C98.3 19.9292 98.3 27.1469 94.8 38.135C94.6 38.7814 87.2 62.8044 87 63.5585C86.1 66.0362 85.1 68.6217 84 71.4225Z" fill="white"/>
<path d="M84 71.4227C83.7 72.1768 83.2 72.7155 82.5 73.1464C81.9 73.5773 81.1 73.7927 80.4 73.9004C78.9 74.1159 77.4 73.9004 76 73.3618C74.6 72.9309 73.2 72.2845 72.1 71.2073C71.6 70.6686 71 69.9146 71 69.0527C71 68.6218 71.2 68.1909 71.3 67.8678L71.7 66.7905C73.7 60.8655 75.5 54.8328 77.3 48.9079L82.8 31.0253C83.3 29.5171 83.8 28.0089 84.2 26.5007C84.6 24.9926 84.6 23.4844 84.4 21.9762C84.1 20.4681 83.6 19.0676 82.9 17.6672C82.7 17.344 82.5 17.0208 82.3 16.6976C82.1 16.3744 81.9 16.159 81.7 15.8358C81.2 15.2972 80.6 14.8663 80 14.4354C77.5 12.9272 74.7 11.9577 71.9 11.7422C70.5 11.6345 69 11.7422 67.9 12.604C66.8 13.4658 66 14.8663 65.5 16.2667C63.6 22.1917 61.7 28.1166 59.9 34.1493L57 43.1984L55.6 47.7229L54.9 49.9851L54.6 51.0624C54.5 51.3856 54.4 51.8165 54.1 52.1397C53.6 52.786 52.9 53.1092 52.1 53.3247C51.4 53.5401 50.7 53.7556 49.9 53.8633C48.4 54.0788 46.9 53.971 45.5 53.5401C44.8 53.3247 44.1 53.1092 43.4 52.6783C42.7 52.3551 42 51.8165 41.7 50.9547C41.5 50.5238 41.5 50.0929 41.5 49.662C41.5 49.2311 41.7 48.8001 41.8 48.477C42 47.7229 42.3 46.9688 42.5 46.2147C42.9 44.7065 43.3 43.1984 43.8 41.6902C44.2 40.182 44.7 38.6738 45.1 37.1657C45.9 34.1493 46.6 31.133 47.4 28.0089C49.1 22.084 51 16.0513 54 10.5572C55.5 7.86404 57.3 5.2786 59.7 3.33952C62.1 1.50817 65 0.538633 67.9 0.215453C69.5 0 71 0 72.4 0C73.9 0 75.3 0.107727 76.8 0.215453C78.3 0.32318 79.7 0.64636 81.1 0.969539C82.5 1.40045 83.9 1.83135 85.3 2.58544C88 4.09361 90.2 6.24814 92 8.83358C92.9 10.1263 93.7 11.419 94.5 12.7117C95.3 14.1122 96 15.5126 96.5 17.0208C97.5 20.0371 97.9 23.3767 97.7 26.5007C97.5 29.7325 96.8 32.8566 95.9 35.873L90.2 53.7556L87.4 62.6969C86.4 65.6055 85.2 68.5141 84 71.4227ZM83.9 71.315C85 68.4064 86.2 65.4978 87.1 62.5892L89.8 53.6478L95.1 35.6575C95.9 32.6412 96.6 29.6248 96.8 26.5007C97 23.3767 96.6 20.3603 95.6 17.4517C94.6 14.5431 93 11.9577 91.3 9.47994C90.4 8.18722 89.5 7.10996 88.5 6.03269C87.5 4.95542 86.3 4.09361 85.1 3.2318C83.9 2.47771 82.5 1.93908 81.1 1.50817C79.7 1.07727 78.3 0.754086 76.8 0.64636C73.9 0.32318 71 0.215453 68.1 0.538633C65.2 0.861813 62.4 1.93908 60.1 3.87816C57.8 5.81724 56.2 8.40267 54.8 11.0958C52 16.4822 50 22.5149 48.3 28.4398C47.5 31.4562 46.7 34.4725 45.9 37.4889C45.5 38.997 45 40.5052 44.5 42.0134C44 43.5215 43.6 45.0297 43.1 46.5379L42.4 48.8001C42.3 49.2311 42.1 49.5542 42.1 49.8774C42.1 50.2006 42.1 50.5238 42.2 50.847C42.4 51.4933 43 51.9242 43.6 52.2474C44.2 52.5706 44.9 52.786 45.6 53.1092C47 53.5401 48.4 53.6478 49.9 53.5401C50.6 53.4324 51.3 53.3247 52 53.1092C52.7 52.8938 53.4 52.5706 53.8 52.0319C54 51.7088 54.1 51.3856 54.2 51.0624L54.5 49.9851C54.7 49.2311 54.9 48.477 55.2 47.7229L56.6 43.1984L59.3 34.2571C61.1 28.2244 62.9 22.2994 64.8 16.2667C65.4 14.7585 66.1 13.3581 67.4 12.2808C68 11.7422 68.8 11.419 69.6 11.3113C70.4 11.2036 71.1 11.2036 71.9 11.2036C73.4 11.3113 74.9 11.6345 76.3 12.0654C77.7 12.4963 79.1 13.1426 80.4 14.0045C81 14.4354 81.7 14.8663 82.2 15.5126C82.5 15.8358 82.7 16.159 83 16.4822C83.2 16.8053 83.4 17.1285 83.6 17.5594C84.3 18.9599 84.9 20.4681 85.1 22.084C85.3 23.6999 85.3 25.3158 84.8 26.9317L83.4 31.2407L77.9 49.1233L75.1 58.0646L73.7 62.5892C73.5 63.3432 73.2 64.0973 73 64.8514L72.2 67.0059L71.8 68.0832C71.7 68.4064 71.5 68.8373 71.5 69.1605C71.5 69.9146 71.9 70.5609 72.4 71.0996C73.5 72.1768 74.8 72.7155 76.2 73.2541C77.6 73.7927 79 74.0082 80.5 73.7927C81.8 73.4695 83.3 72.8232 83.9 71.315Z" fill="#112E45"/>
</g>
<defs>
<clipPath id="clip0_481_12887">
<rect width="97.8" height="145" fill="white"/>
</clipPath>
</defs>
</svg>
