<svg width="24" height="24" viewBox="0 0 24 24" fill="none" xmlns="http://www.w3.org/2000/svg">
<path d="M21.2836 8.27559L15.3329 7.41075L12.6727 2.01778C12.6 1.87013 12.4805 1.75059 12.3329 1.67794C11.9625 1.49513 11.5125 1.64747 11.3274 2.01778L8.66723 7.41075L2.71645 8.27559C2.55239 8.29903 2.40239 8.37638 2.28754 8.49356C2.1487 8.63627 2.0722 8.82825 2.07483 9.02733C2.07747 9.22642 2.15904 9.41631 2.30161 9.55528L6.60708 13.7529L5.58989 19.6803C5.56603 19.8182 5.58129 19.96 5.63393 20.0896C5.68657 20.2193 5.77448 20.3316 5.8877 20.4138C6.00092 20.496 6.13492 20.5449 6.2745 20.5549C6.41407 20.5648 6.55365 20.5355 6.67739 20.4701L12 17.6717L17.3227 20.4701C17.468 20.5475 17.6368 20.5733 17.7985 20.5451C18.2063 20.4748 18.4805 20.0881 18.4102 19.6803L17.393 13.7529L21.6985 9.55528C21.8157 9.44044 21.893 9.29044 21.9165 9.12638C21.9797 8.71622 21.6938 8.33653 21.2836 8.27559V8.27559Z" fill="#FDCA40"/>
</svg>
