<svg width="24" height="24" viewBox="0 0 24 24" fill="none" xmlns="http://www.w3.org/2000/svg">
<path d="M16.0419 2H7.95811C4.67279 2 2 4.67279 2 7.95811V16.0419C2 19.3272 4.67279 22 7.95811 22H16.0419C19.3272 22 22 19.3272 22 16.0419V7.95811C22 4.67279 19.3272 2 16.0419 2ZM19.988 16.0419C19.988 18.2213 18.2213 19.988 16.0419 19.988H7.95811C5.77875 19.988 4.012 18.2213 4.012 16.0419V7.95811C4.012 5.77871 5.77875 4.012 7.95811 4.012H16.0419C18.2213 4.012 19.988 5.77871 19.988 7.95811V16.0419Z" fill="#00E497"/>
<path d="M11.9999 6.82715C9.14762 6.82715 6.82715 9.14762 6.82715 11.9998C6.82715 14.852 9.14762 17.1725 11.9999 17.1725C14.8521 17.1725 17.1726 14.8521 17.1726 11.9998C17.1726 9.14759 14.8521 6.82715 11.9999 6.82715ZM11.9999 15.1606C10.2542 15.1606 8.83915 13.7455 8.83915 11.9999C8.83915 10.2542 10.2543 8.83915 11.9999 8.83915C13.7455 8.83915 15.1606 10.2542 15.1606 11.9999C15.1606 13.7455 13.7455 15.1606 11.9999 15.1606Z" fill="#00E497"/>
<path d="M17.1828 8.10544C17.8674 8.10544 18.4223 7.5505 18.4223 6.86595C18.4223 6.1814 17.8674 5.62646 17.1828 5.62646C16.4983 5.62646 15.9434 6.1814 15.9434 6.86595C15.9434 7.5505 16.4983 8.10544 17.1828 8.10544Z" fill="#00E497"/>
</svg>
