<svg width="24" height="24" viewBox="0 0 24 24" fill="none" xmlns="http://www.w3.org/2000/svg">
<path fill-rule="evenodd" clip-rule="evenodd" d="M21.3161 19.9992H17.5209V14.8018C17.5209 13.564 17.4964 11.9691 15.5485 11.9691C13.5716 11.9691 13.2723 13.318 13.2723 14.7145V19.9992H9.47989V9.31244H13.1182V10.7725H13.1708C13.6768 9.93295 14.9155 9.04741 16.7619 9.04741C20.6069 9.04741 21.3161 11.2613 21.3161 14.1393V20V19.9992ZM5.20138 7.85241C4.61754 7.85241 4.05761 7.64947 3.64477 7.28824C3.23193 6.927 3 6.43707 3 5.9262C3 5.41534 3.23193 4.92541 3.64477 4.56417C4.05761 4.20294 4.61754 4 5.20138 4C5.78522 4 6.34515 4.20294 6.75799 4.56417C7.17082 4.92541 7.40275 5.41534 7.40275 5.9262C7.40275 6.43707 7.17082 6.927 6.75799 7.28824C6.34515 7.64947 5.78522 7.85241 5.20138 7.85241ZM3.29881 9.31244H7.09851V19.9992H3.29881V9.31244Z" fill="#00E497"/>
</svg>
