<svg width="145" height="120" viewBox="0 0 145 120" fill="none" xmlns="http://www.w3.org/2000/svg">
<g clip-path="url(#clip0_481_12888)">
<path d="M101.267 106.432L98.2943 107.14C97.3036 107.352 96.3836 107.565 95.3929 107.777C93.4822 108.202 91.5008 108.485 89.5193 108.697C85.6272 109.192 81.6643 109.475 77.7014 109.475C73.7385 109.475 69.7755 109.405 65.8834 108.909C61.9205 108.414 58.0991 107.494 54.3485 106.22C54.207 106.149 54.0654 106.22 53.9947 106.362C53.3578 107.919 52.7209 109.546 52.1547 111.103C52.084 111.315 52.2255 111.528 52.367 111.598C56.4007 112.943 60.5759 113.863 64.7511 114.429C68.9971 114.995 73.2431 115.207 77.4891 114.995C81.735 114.783 85.981 114.217 90.0855 113.297C94.2607 112.377 98.2236 110.961 102.116 109.263C102.186 109.192 102.257 109.122 102.186 108.98C102.045 108.131 101.62 107.282 101.267 106.432Z" fill="#112E45"/>
<path d="M101.125 103.743L99.9927 104.097L102.045 108.697L101.125 103.743Z" fill="white"/>
<path d="M97.8698 105.017L96.7375 105.371L98.5066 109.971L97.8698 105.017Z" fill="white"/>
<path d="M94.473 106.008L93.3407 106.22L94.8976 110.961L94.473 106.008Z" fill="white"/>
<path d="M91.0762 106.715L89.9439 106.928L91.2885 111.669L91.0762 106.715Z" fill="white"/>
<path d="M87.6086 112.235V107.281L86.4764 107.423L87.6086 112.235Z" fill="white"/>
<path d="M83.7165 112.66L83.9996 107.706L82.8673 107.777L83.7165 112.66Z" fill="white"/>
<path d="M79.7536 112.872L80.249 107.918L79.1167 107.989L79.7536 112.872Z" fill="white"/>
<path d="M75.7199 112.943L76.4275 107.989L75.2953 107.918L75.7199 112.943Z" fill="white"/>
<path d="M71.6862 112.801L72.6062 107.848L71.4739 107.777L71.6862 112.801Z" fill="white"/>
<path d="M67.7941 107.352L67.7233 112.447L68.9264 107.494L67.7941 107.352Z" fill="white"/>
<path d="M63.9727 111.952L65.3173 106.998L64.185 106.857L63.9727 111.952Z" fill="white"/>
<path d="M60.2928 111.315L61.9205 106.291L60.7882 106.079L60.2928 111.315Z" fill="white"/>
<path d="M57.3914 105.229L56.6838 110.466L58.5237 105.512L57.3914 105.229Z" fill="white"/>
<path d="M54.49 104.097L53.5701 109.405L55.6223 104.451L54.49 104.097Z" fill="white"/>
<path d="M41.6106 100.488C37.2938 97.7282 33.4017 94.4729 30.0757 90.6516C26.8204 86.8302 24.1313 82.5134 22.5037 77.7721C20.8761 73.0308 20.3099 67.8648 21.2299 62.8404C22.1498 57.816 24.3436 53.1454 27.3865 49.1118C27.5281 48.9702 27.4573 48.7579 27.3158 48.6164C27.1742 48.4749 26.9619 48.4749 26.8204 48.6164C24.839 50.6686 22.9283 52.9331 21.3714 55.3392C19.8146 57.816 18.5408 60.4344 17.6916 63.1943C16.7716 65.9541 16.2762 68.8555 16.2055 71.8277C16.1347 74.7291 16.4885 77.7013 17.1962 80.532C17.9746 83.3626 19.0361 86.1225 20.5222 88.5993C21.9375 91.1469 23.7067 93.4822 25.6882 95.6052C27.5988 97.7282 29.8634 99.6389 32.1279 101.337C32.694 101.762 33.3309 102.186 33.897 102.611L34.817 103.177L35.737 103.743C36.3739 104.097 36.94 104.522 37.5769 104.805C38.2138 105.159 38.9214 105.512 39.5583 105.796L41.6813 100.63C41.7521 100.7 41.6813 100.559 41.6106 100.488Z" fill="#112E45"/>
<path d="M43.3797 100.205L39.4875 103.177L44.0166 101.196L43.3797 100.205Z" fill="white"/>
<path d="M40.1953 98.6479L36.2324 101.549L40.7614 99.6387L40.1953 98.6479Z" fill="white"/>
<path d="M37.0815 96.4546L33.0479 99.2852L37.6477 97.5161L37.0815 96.4546Z" fill="white"/>
<path d="M34.2509 94.1191L30.0757 96.8083L34.7463 95.1806L34.2509 94.1191Z" fill="white"/>
<path d="M31.6325 91.6421L27.4573 94.1897L32.1279 92.6328L31.6325 91.6421Z" fill="white"/>
<path d="M29.368 88.9531L25.0513 91.3592L29.7926 90.0146L29.368 88.9531Z" fill="white"/>
<path d="M27.3865 86.1226L22.999 88.4578L27.8111 87.1841L27.3865 86.1226Z" fill="white"/>
<path d="M25.7589 83.2212L21.3007 85.3442L26.1128 84.2827L25.7589 83.2212Z" fill="white"/>
<path d="M24.4144 80.1074L19.9561 82.1596L24.7682 81.1689L24.4144 80.1074Z" fill="white"/>
<path d="M23.4944 76.9229L18.8946 78.8335L23.8482 78.0551L23.4944 76.9229Z" fill="white"/>
<path d="M22.9283 73.6675L18.2577 75.4366L23.2113 74.729L22.9283 73.6675Z" fill="white"/>
<path d="M22.7867 70.2002L18.0454 71.8986L23.0698 71.3325L22.7867 70.2002Z" fill="white"/>
<path d="M23.2821 67.7939L23.0698 66.7324L18.2577 68.2893L23.2821 67.7939Z" fill="white"/>
<path d="M23.919 64.3974L23.7067 63.2651L18.8239 64.6805L23.919 64.3974Z" fill="white"/>
<path d="M24.8389 60.0098L19.8853 61.3543L24.9805 61.142L24.8389 60.0098Z" fill="white"/>
<path d="M26.2543 56.896L21.2299 58.0283H26.3959L26.2543 56.896Z" fill="white"/>
<path d="M28.0942 53.7822L22.9283 54.8437L28.165 54.9145L28.0942 53.7822Z" fill="white"/>
<path d="M30.2172 50.8101L25.0513 51.8008L30.288 52.0131L30.2172 50.8101Z" fill="white"/>
<path d="M32.694 48.0503L27.3865 48.8287L32.694 49.1826V48.0503Z" fill="white"/>
<path d="M114.924 100.276C114.641 100.417 114.429 100.559 114.146 100.7L114.712 102.257C118.958 99.2142 122.638 95.6759 125.469 91.8545C125.327 91.996 125.185 92.1376 125.115 92.2083C122.213 95.2513 118.746 97.9404 114.924 100.276Z" fill="#112E45"/>
<path d="M114.924 100.347C114.641 100.488 114.429 100.63 114.146 100.842L114.217 100.701C114.429 101.196 114.712 101.691 114.924 102.187L114.5 102.045C115.42 101.196 116.269 100.276 117.26 99.4975C118.18 98.7191 119.241 98.0114 120.232 97.233C121.223 96.4545 122.143 95.6053 122.921 94.6146C123.699 93.6239 124.336 92.5624 124.973 91.5009L125.822 92.2793C125.044 93.1285 124.266 93.9777 123.487 94.7561C122.638 95.5346 121.789 96.313 120.869 96.9499C119.949 97.6576 118.958 98.2237 117.897 98.7191C116.906 99.2852 115.915 99.7806 114.924 100.347ZM114.854 100.205C115.844 99.639 116.694 98.8606 117.472 98.0822C118.321 97.3037 119.1 96.5253 119.949 95.8176L122.496 93.6947C123.346 92.987 124.124 92.2086 125.044 91.5009L125.115 91.4301C125.327 91.2178 125.681 91.2178 125.893 91.5009C126.105 91.7132 126.105 91.9963 125.893 92.2086C125.044 93.1993 124.124 94.0485 123.275 94.9684C122.426 95.8884 121.506 96.8084 120.727 97.7991C119.949 98.7898 119.1 99.7098 118.109 100.559C117.118 101.408 115.986 101.974 114.854 102.54H114.783C114.641 102.611 114.5 102.54 114.5 102.47V102.399C114.358 101.833 114.217 101.337 114.075 100.771C114.075 100.701 114.075 100.701 114.146 100.701C114.358 100.488 114.641 100.347 114.854 100.205Z" fill="#112E45"/>
<path d="M141.816 76.286H134.668C131.979 85.8395 124.902 94.2607 114.924 100.347C114.641 100.488 114.429 100.63 114.146 100.771L117.472 109.9C118.817 113.58 116.906 117.614 113.297 118.958C109.617 120.303 105.583 118.392 104.239 114.712L101.266 106.503C100.63 106.716 99.9927 106.928 99.285 107.069C92.8453 108.98 85.9102 110.042 78.6213 110.112C70.6955 110.183 63.1235 109.122 56.2592 107.069C55.6223 106.857 54.9854 106.645 54.3485 106.432L51.3763 114.641C50.0317 118.321 45.9981 120.161 42.3182 118.887C38.6384 117.543 36.7985 113.509 38.143 109.829L41.469 100.7C41.186 100.559 40.9737 100.417 40.6906 100.276C29.0142 93.0576 21.4422 82.5135 20.593 70.554C20.5222 69.9878 20.5222 69.4217 20.5222 68.8556C20.5222 66.0957 20.8053 63.4774 21.5129 60.859C26.3958 41.4691 49.6071 26.6081 77.7013 26.2543C84.8487 26.1835 91.7838 27.0327 98.082 28.7311C99.002 28.9434 99.9219 29.2265 100.771 29.5096C98.8604 28.9434 96.9497 28.4481 94.9683 28.0235C95.1098 28.0235 95.2514 28.0942 95.3221 28.0942C97.0205 28.4481 98.8604 28.0235 100.134 26.8204C102.894 24.2021 106.715 20.6638 107.635 19.8854C109.122 18.5408 111.032 17.4793 113.084 18.8946C114.5 20.593 116.34 22.2206 108.485 32.4817C109.829 33.0479 111.103 33.6848 112.377 34.3924C121.93 39.4876 129.219 46.7058 132.97 55.0562H141.745C139.976 55.0562 138.56 59.7975 138.56 65.6711C138.631 71.4739 140.046 76.286 141.816 76.286Z" fill="white"/>
<path d="M141.816 76.3567L134.668 76.4275L134.81 76.2859C133.394 81.5934 130.634 86.4763 127.025 90.6515C123.416 94.8267 119.1 98.2942 114.358 101.125L114.571 100.559L116.34 105.3C116.906 106.928 117.543 108.414 118.109 110.112C118.604 111.881 118.533 113.792 117.755 115.42C116.977 117.047 115.632 118.463 113.934 119.17C112.306 119.949 110.325 120.019 108.555 119.524C106.786 118.958 105.3 117.826 104.309 116.269L103.956 115.632C103.885 115.42 103.743 115.207 103.673 114.995C103.531 114.57 103.389 114.217 103.248 113.792L102.399 111.386L100.63 106.645L101.408 106.998C93.7653 109.475 85.7687 110.608 77.7721 110.608C73.7384 110.608 69.7755 110.254 65.8126 109.617C61.8497 108.98 57.9576 108.06 54.1362 106.786L54.6315 106.503L52.8624 111.244L51.9424 113.651C51.6594 114.429 51.3763 115.278 50.8809 116.057C49.961 117.543 48.4041 118.675 46.7765 119.17C45.0781 119.666 43.2382 119.595 41.6106 118.816C39.9829 118.109 38.7091 116.764 38.0015 115.207C37.2938 113.58 37.1523 111.74 37.6476 110.112C38.7799 106.928 39.9829 103.743 41.1152 100.559L41.186 100.842C36.0908 97.7989 31.4202 93.9775 27.7404 89.3069C24.0605 84.6364 21.3714 79.1166 20.4515 73.1722C20.2392 71.6861 20.0976 70.2001 20.0269 68.714C20.0269 67.2279 20.0976 65.7418 20.3099 64.2557C20.6638 61.2835 21.5129 58.3821 22.716 55.6222C25.0513 50.1024 28.8726 45.2903 33.3309 41.2567C37.7892 37.2937 42.9551 34.1093 48.4041 31.7032C53.8531 29.2972 59.6559 27.5988 65.5295 26.608C77.2767 24.6266 89.5193 25.2635 100.983 28.8018L100.559 30.2171C98.6481 29.651 96.7374 29.1556 94.8268 28.731L95.1098 27.3157C95.5344 27.3865 95.959 27.528 96.3129 27.528C96.7374 27.528 97.0913 27.528 97.5159 27.4572C98.2943 27.3157 99.002 26.8911 99.5681 26.3957L103.602 22.7159L105.583 20.876L106.574 19.956C106.928 19.673 107.211 19.3191 107.635 19.0361C108.414 18.4699 109.263 17.9038 110.325 17.6915C110.891 17.6207 111.457 17.6207 111.952 17.7623C112.518 17.9038 113.014 18.1161 113.438 18.4699C113.509 18.4699 113.509 18.5407 113.58 18.6115C114.004 19.1068 114.5 19.673 114.783 20.4514C115.066 21.2298 115.066 22.0082 114.924 22.7159C114.641 24.1312 114.075 25.3343 113.438 26.5373C112.801 27.6695 112.094 28.8018 111.315 29.8633C110.537 30.9248 109.758 31.9863 108.98 33.0478L108.909 33.1185L108.697 32.1278L112.518 34.0385L114.358 35.1L116.198 36.2323C118.604 37.7891 120.939 39.4875 123.062 41.3982C125.185 43.3089 127.167 45.4319 128.865 47.6964C130.564 50.0317 132.05 52.5085 133.253 55.1268L132.899 54.9145L141.674 54.9853V55.6222C141.391 55.6222 141.037 55.9053 140.754 56.2591C140.471 56.6129 140.259 57.0375 140.117 57.4621C139.763 58.3113 139.48 59.2313 139.339 60.222C138.985 62.1327 138.773 64.0434 138.773 65.9541C138.773 67.8648 138.843 69.8462 139.197 71.6861C139.339 72.6061 139.622 73.5968 139.976 74.446C140.117 74.8706 140.329 75.2952 140.613 75.7198C140.896 76.0737 141.249 76.4275 141.745 76.4982V76.3567H141.816ZM141.816 76.3567C141.249 76.3567 140.825 75.9321 140.542 75.5783C140.259 75.1537 140.046 74.7291 139.834 74.3045C139.48 73.3845 139.197 72.4646 138.985 71.4738C138.631 69.5632 138.419 67.5817 138.419 65.671C138.419 63.6896 138.49 61.7789 138.843 59.7974C139.056 58.8067 139.268 57.8867 139.622 56.9668C139.834 56.4714 140.046 56.0468 140.329 55.6222C140.613 55.1976 141.108 54.773 141.745 54.7022C141.957 54.7022 142.099 54.8438 142.099 55.0561C142.099 55.2684 141.957 55.4099 141.745 55.4099H133.041C132.899 55.4099 132.757 55.3391 132.687 55.1976C131.484 52.65 129.998 50.244 128.299 48.0502C126.601 45.8565 124.619 43.8042 122.496 41.9643C120.373 40.1244 118.109 38.426 115.703 36.9399L113.863 35.8784L112.023 34.8877L108.202 33.0478C107.919 32.9062 107.777 32.5524 107.919 32.1986C107.919 32.1278 107.989 32.057 108.06 32.057L107.989 32.1278C108.768 31.0663 109.546 30.0756 110.254 29.0141C110.961 27.9526 111.669 26.8911 112.235 25.7589C112.872 24.6266 113.368 23.4943 113.58 22.3621C113.651 21.7959 113.651 21.2298 113.509 20.8052C113.368 20.3099 113.014 19.8853 112.589 19.3899L112.731 19.5314C112.094 19.1068 111.386 18.8945 110.678 19.0361C109.971 19.1776 109.263 19.6022 108.555 20.0976C108.202 20.3806 107.919 20.6637 107.565 20.9467L106.574 21.8667L104.592 23.7066L100.63 27.4572C99.8512 28.1649 98.9312 28.6603 97.8697 28.8726C97.3743 29.0141 96.879 29.0141 96.3129 29.0141C95.8175 29.0141 95.2514 28.8726 94.8268 28.8018C94.4022 28.731 94.1899 28.3064 94.2606 27.9526C94.3314 27.528 94.756 27.3157 95.1098 27.3865C97.0913 27.8111 99.0727 28.3064 100.983 28.9433C101.337 29.0849 101.62 29.5095 101.479 29.8633C101.337 30.2171 100.913 30.4294 100.559 30.3587C94.9683 28.6603 89.1655 27.6695 83.2919 27.3157C80.3904 27.1034 77.4183 27.1034 74.5168 27.2449C71.6154 27.3865 68.6433 27.6695 65.8126 28.1649C60.0098 29.0849 54.3485 30.7125 48.9702 33.0478C43.592 35.3831 38.4968 38.426 34.1093 42.3182C29.7218 45.998 25.9712 50.6686 23.6359 55.976C22.5037 58.6651 21.6545 61.4958 21.2299 64.3265C21.0176 65.7418 20.9468 67.2279 20.9468 68.714C20.9468 70.2001 21.0883 71.6154 21.3006 73.1015C22.1498 78.9043 24.6974 84.4241 28.3065 89.0239C31.9156 93.6944 36.5862 97.4451 41.6106 100.488C41.6813 100.559 41.7521 100.63 41.6813 100.771C40.5491 103.956 39.346 107.14 38.2845 110.325C37.7892 111.881 37.9307 113.651 38.6384 115.066C39.346 116.552 40.5491 117.755 42.0352 118.392C43.5212 119.1 45.2196 119.17 46.7765 118.675C48.3333 118.18 49.6779 117.118 50.5271 115.774C50.9517 115.066 51.164 114.287 51.4471 113.509L52.2963 111.103L53.9946 106.291C54.0654 106.079 54.2777 105.937 54.49 106.008C58.2406 107.211 62.1328 108.06 66.0249 108.626C69.917 109.192 73.88 109.405 77.8429 109.405C81.8058 109.405 85.7687 109.121 89.6608 108.485C93.553 107.918 97.3743 106.928 101.125 105.795C101.479 105.725 101.762 105.866 101.903 106.149L103.602 110.891L104.451 113.297C104.592 113.721 104.734 114.075 104.876 114.5C104.946 114.641 105.017 114.854 105.088 115.066L105.371 115.561C106.149 116.906 107.494 117.896 108.98 118.321C110.466 118.816 112.094 118.746 113.509 118.038C114.924 117.401 116.127 116.269 116.764 114.854C117.401 113.438 117.543 111.811 117.118 110.325L113.721 100.771C113.651 100.559 113.721 100.346 113.934 100.205C118.604 97.5158 122.921 94.119 126.53 90.0854C128.299 88.0331 129.927 85.9102 131.271 83.5041C132.616 81.1688 133.748 78.692 134.456 76.0737C134.456 76.0029 134.527 75.9321 134.597 75.9321L141.745 76.0029V76.3567H141.816Z" fill="#112E45"/>
<path d="M98.365 74.4461C98.365 74.3753 98.365 74.2338 98.365 74.163C98.2235 72.1108 97.3035 70.4832 95.5344 69.2802C93.6945 68.0064 91.713 66.9449 89.5193 66.308C87.3255 65.6711 84.2826 64.8219 80.3196 64.0435C80.2489 61.0005 80.2489 59.4437 80.1781 56.4007C82.1596 56.9668 83.3626 58.1699 83.7164 59.8683C88.6701 60.0806 91.1469 60.3636 96.1005 61.0713C95.2513 58.3822 93.1991 55.9761 90.2977 53.9239C87.5378 51.9424 84.0703 50.3856 79.9658 49.961C79.8951 48.5457 79.8951 47.838 79.8243 46.3519C78.409 46.2811 77.7013 46.2811 76.286 46.3519C76.2152 47.7672 76.2152 48.4749 76.1444 49.961C71.9692 50.3148 68.4309 51.9424 65.3172 54.0654C62.2035 56.2592 60.0805 58.5945 59.5144 61.142C59.019 63.1943 59.5851 64.7511 61.0712 65.9541C62.5573 67.1572 64.468 68.0771 66.6618 68.714C68.8555 69.3509 71.8985 69.9878 75.6491 70.7663C75.6491 74.3046 75.6491 76.0737 75.6491 79.5413C73.1015 78.8336 71.6862 77.2767 71.3323 75.083C65.9541 74.9415 63.265 74.7292 57.9575 74.2338C58.0991 77.206 60.0805 79.8243 63.3358 82.3012C66.6618 84.8487 70.7662 86.9717 75.7198 87.5378C75.7906 89.5901 75.7906 90.6516 75.8614 92.7038C77.5598 92.7745 78.409 92.8453 80.1073 92.7038C80.1781 90.6516 80.1781 89.6608 80.2489 87.6086C82.7257 87.3963 84.9902 86.8302 87.0424 85.9102C87.9624 85.5564 88.8116 85.1318 89.6608 84.6364C92.3499 83.0796 94.5437 81.3104 96.1005 79.4705C97.5866 77.8429 98.365 76.1445 98.365 74.4461ZM75.7906 62.9112C74.446 62.4866 73.4553 61.9912 72.7477 61.4959C72.04 61.0005 71.7569 60.2928 71.8277 59.5144C71.8985 58.5945 72.3231 57.816 73.0307 57.2499C73.7384 56.6838 74.7291 56.3299 75.9321 56.1176C75.8614 58.8775 75.7906 60.2221 75.7906 62.9112ZM80.3196 79.7536C80.3196 77.9136 80.3196 76.9937 80.3196 75.1538C80.3196 74.7292 80.3196 74.5876 80.3196 74.163C80.3196 73.1723 80.3196 72.7477 80.3196 71.757C81.8765 72.1816 83.0795 72.6769 83.858 73.2431C84.2826 73.5261 84.5656 73.88 84.7779 74.2338C84.9902 74.5876 85.061 75.0122 85.061 75.5076C85.061 76.4983 84.6364 77.4183 83.7872 78.1967C83.5041 78.4798 83.1503 78.6921 82.7257 78.9044C82.0888 79.329 81.3104 79.612 80.3196 79.7536Z" fill="#016DF4"/>
<path d="M145 65.6001C145 67.5108 144.929 69.4923 144.646 71.4029C144.505 72.3937 144.292 73.3136 143.938 74.3044C143.797 74.7997 143.514 75.2243 143.231 75.7197L142.948 76.0735C142.877 76.1443 142.735 76.2858 142.594 76.3566C142.452 76.4273 142.311 76.4981 142.169 76.5689C142.028 76.6396 141.816 76.6396 141.674 76.7104C141.532 76.7104 141.32 76.6396 141.179 76.6396C141.037 76.5689 140.896 76.4981 140.754 76.4273C140.612 76.3566 140.542 76.215 140.4 76.1443L140.117 75.7905C139.763 75.3659 139.551 74.8705 139.339 74.4459C138.914 73.5259 138.702 72.5352 138.49 71.5445C138.136 69.563 137.994 67.6523 137.994 65.6709C137.994 63.6894 138.206 61.708 138.56 59.7973C138.773 58.8066 139.056 57.8866 139.409 56.8959C139.622 56.4005 139.834 55.9759 140.188 55.5513C140.471 55.1267 140.966 54.6313 141.674 54.6313C142.382 54.7021 142.877 55.1975 143.16 55.6221C143.443 56.0467 143.655 56.542 143.868 56.9666C144.222 57.8866 144.434 58.8773 144.575 59.868C144.929 61.708 145 63.6894 145 65.6001ZM144.929 65.6001C144.929 63.6894 144.717 61.708 144.292 59.868C144.08 58.9481 143.797 58.0281 143.372 57.1789C143.16 56.7543 142.948 56.3297 142.665 55.9759C142.382 55.6221 142.028 55.4098 141.745 55.4098C141.462 55.4098 141.179 55.6928 140.896 56.0467C140.683 56.4005 140.471 56.8251 140.259 57.2497C139.905 58.0989 139.693 59.0189 139.551 59.9388C139.197 61.7787 139.126 63.6894 139.126 65.6001C139.126 67.5108 139.268 69.4215 139.622 71.2614C139.763 72.1814 139.976 73.1013 140.329 73.9505C140.471 74.3751 140.683 74.7997 140.896 75.1536C141.108 75.5074 141.462 75.7197 141.674 75.7197C141.886 75.7197 142.24 75.5074 142.523 75.1536C142.806 74.7997 143.019 74.3751 143.231 73.9505C143.585 73.1013 143.868 72.1814 144.151 71.2614C144.646 69.4923 144.929 67.5816 144.929 65.6001Z" fill="#112E45"/>
<path d="M108.555 32.4109C110.608 33.3308 112.518 34.3216 114.429 35.3831C113.792 35.0292 113.155 34.6754 112.448 34.3216C113.084 31.2079 114.217 25.5466 114.57 23.9897C115.066 21.7252 115.207 20.3099 113.155 18.8945C114.5 20.4514 116.41 22.079 108.555 32.4109C108.555 32.3401 108.555 32.4109 108.555 32.4109Z" fill="#112E45"/>
<path d="M108.555 32.3402C109.051 32.4817 109.546 32.694 110.041 32.9063C110.537 33.1186 111.032 33.3309 111.528 33.5432C112.518 33.9678 113.509 34.534 114.429 35.0293C114.571 35.1001 114.641 35.3124 114.571 35.4539C114.5 35.5955 114.287 35.6662 114.146 35.5955C113.509 35.2416 112.801 34.8878 112.164 34.534C112.023 34.4632 112.023 34.3217 112.023 34.1801C112.589 31.491 113.367 28.8727 113.863 26.1836C114.004 25.5467 114.146 24.839 114.217 24.2021C114.358 23.4944 114.5 22.8575 114.5 22.2206C114.5 21.5837 114.429 20.9469 114.146 20.3807C113.863 19.8146 113.367 19.39 112.801 19.0362L113.226 18.5408C113.651 19.0362 114.146 19.5315 114.358 20.2392C114.641 20.9469 114.641 21.6545 114.5 22.3622C114.217 23.7067 113.651 24.9098 113.014 26.042C112.377 27.1743 111.598 28.2358 110.82 29.2973C110.254 30.4295 109.405 31.4203 108.555 32.3402ZM108.485 32.411C109.192 31.2787 109.9 30.2172 110.608 29.085C110.961 28.5188 111.315 27.9527 111.598 27.4573C111.952 26.8912 112.235 26.3251 112.518 25.759C113.084 24.6267 113.651 23.4237 113.863 22.2206C113.934 21.6545 114.004 21.0176 113.792 20.4515C113.58 19.8854 113.226 19.4608 112.801 18.8946C112.66 18.7531 112.731 18.5408 112.872 18.3993C113.014 18.3285 113.155 18.3285 113.297 18.3993C113.863 18.8239 114.429 19.3192 114.712 20.0269C115.066 20.7346 115.066 21.4422 114.995 22.1499C114.924 22.8575 114.712 23.4944 114.571 24.2021C114.429 24.839 114.287 25.5467 114.146 26.1836C113.58 28.8727 113.226 31.5618 112.731 34.2509L112.589 33.8971C113.226 34.2509 113.863 34.6755 114.571 35.0293L114.287 35.5247C113.367 34.9586 112.377 34.4632 111.457 33.8971L110.041 33.1186C109.475 32.9063 109.051 32.694 108.485 32.411Z" fill="#112E45"/>
<path d="M110.254 45.5027C111.739 45.5027 112.943 44.2988 112.943 42.8136C112.943 41.3285 111.739 40.1245 110.254 40.1245C108.769 40.1245 107.565 41.3285 107.565 42.8136C107.565 44.2988 108.769 45.5027 110.254 45.5027Z" fill="#112E45"/>
<path d="M110.254 45.8564C108.555 45.8564 107.211 44.5118 107.211 42.8135C107.211 41.1151 108.555 39.7705 110.254 39.7705C111.952 39.7705 113.297 41.1151 113.297 42.8135C113.297 44.5118 111.952 45.8564 110.254 45.8564ZM110.254 40.5489C108.98 40.5489 107.918 41.6104 107.918 42.8842C107.918 44.158 108.98 45.2195 110.254 45.2195C111.528 45.2195 112.589 44.158 112.589 42.8842C112.589 41.6104 111.528 40.5489 110.254 40.5489Z" fill="#112E45"/>
<path d="M140.966 65.6709C141.279 65.6709 141.532 64.5303 141.532 63.1233C141.532 61.7163 141.279 60.5757 140.966 60.5757C140.654 60.5757 140.4 61.7163 140.4 63.1233C140.4 64.5303 140.654 65.6709 140.966 65.6709Z" fill="#112E45"/>
<path d="M143.302 65.6709C143.614 65.6709 143.868 64.5303 143.868 63.1233C143.868 61.7163 143.614 60.5757 143.302 60.5757C142.989 60.5757 142.735 61.7163 142.735 63.1233C142.735 64.5303 142.989 65.6709 143.302 65.6709Z" fill="#112E45"/>
<path d="M17.6916 65.8834C17.1962 65.8834 16.6301 65.8834 16.0639 65.7419C15.4978 65.6711 14.8609 65.388 14.3655 64.8927C13.8702 64.3973 13.5871 63.7604 13.5163 63.1943C13.4456 62.6282 13.4456 62.062 13.5871 61.4959C13.6579 61.0005 13.7994 60.4344 14.0117 60.0098C14.1532 59.5852 14.3655 58.8775 15.144 58.453C15.4978 58.3114 15.9224 58.1699 16.4178 58.3822C16.9131 58.5945 17.1254 59.0191 17.1962 59.3729C17.3377 60.0098 17.267 60.6467 17.0547 61.2128C16.8424 61.779 16.5593 62.2036 16.2055 62.6282C15.9224 62.982 15.5686 63.4066 15.2855 63.7604C14.6486 64.5388 13.9409 65.3173 13.021 65.8834C12.101 66.4495 11.1103 66.7326 10.1196 66.9449C9.12884 67.0864 8.06735 67.2987 6.93509 66.8034C6.36896 66.5203 5.94436 66.0957 5.6613 65.6003C5.37823 65.105 5.2367 64.5388 5.2367 64.0435C5.16593 62.982 5.37823 61.9913 5.80283 61.0005C6.01513 60.5052 6.22743 60.0806 6.58126 59.656C6.72279 59.4437 6.93509 59.1606 7.43045 59.0898C7.64275 59.0898 7.85505 59.1606 7.99658 59.3021C8.13812 59.4437 8.20888 59.656 8.20888 59.7975C8.27965 60.0806 8.20888 60.4344 8.13812 60.6467C8.06735 60.9298 7.99658 61.1421 7.92582 61.3544C7.78429 61.8497 7.50122 62.2743 7.21816 62.6989C6.65203 63.5481 5.8736 64.2558 4.95364 64.7511C4.03368 65.2465 2.97218 65.4588 1.98145 65.2465C1.48609 65.1757 0.990727 64.8927 0.636896 64.5388C0.212299 64.2558 0 63.6897 0 63.1943C0 62.1328 0.56613 61.2836 1.20303 60.5052C0.707662 61.3544 0.212299 62.2036 0.212299 63.1943C0.212299 63.6897 0.424597 64.1143 0.778429 64.3973C1.13226 64.6804 1.55686 64.8927 1.98145 64.9634C2.90142 65.105 3.89214 64.8927 4.67057 64.4681C5.51977 63.9727 6.15666 63.3358 6.72279 62.5574C7.00586 62.1328 7.14739 61.7082 7.28892 61.2836C7.43045 60.859 7.57199 60.3636 7.50122 60.0098C7.43045 59.7975 7.35969 59.7975 7.28892 59.7975C7.21816 59.7975 7.07662 59.939 6.93509 60.0806C6.79356 60.4344 6.58126 60.859 6.36896 61.2836C6.01513 62.1328 5.8736 63.1235 5.94436 63.9727C6.01513 64.8927 6.43973 65.6711 7.21816 65.9542C7.99658 66.2372 8.91654 66.1665 9.83651 65.9542C10.7565 65.7419 11.6764 65.4588 12.3841 64.9634C13.0918 64.4681 13.7286 63.7604 14.3655 62.982C14.6486 62.6282 14.9317 62.2036 15.2147 61.8497C15.4978 61.4959 15.7101 61.0713 15.8516 60.7175C15.9932 60.3636 15.9932 59.939 15.9224 59.656C15.8516 59.5144 15.8516 59.5144 15.8516 59.5144C15.8516 59.5144 15.7809 59.5144 15.7101 59.5852C15.5686 59.656 15.427 59.939 15.2855 60.4344C15.144 60.859 15.0024 61.3544 15.0024 61.779C14.8609 62.6282 14.9317 63.4774 15.427 63.902C15.8516 64.3266 16.7008 64.3973 17.6916 64.3266V65.8834Z" fill="#112E45"/>
<path d="M75.5783 0.212299C75.5783 0.0707662 75.5075 0 75.366 0C75.2245 0 75.1537 0.0707662 75.1537 0.212299L74.9414 15.427C74.9414 15.7101 75.1537 15.8516 75.366 15.8516C75.5783 15.8516 75.7906 15.6393 75.7906 15.3563L75.5783 0.212299Z" fill="#112E45"/>
<path d="M71.8277 5.87354C71.6862 5.87354 71.6154 5.9443 71.6154 6.08583L71.4739 18.6115C71.4739 18.8238 71.6862 18.9653 71.8985 18.9653C72.1108 18.9653 72.3231 18.8238 72.3231 18.6115L72.1108 6.01507C72.04 5.9443 71.9692 5.87354 71.8277 5.87354Z" fill="#112E45"/>
<path d="M79.0459 6.01503C79.0459 5.94427 78.9751 5.80273 78.8336 5.80273C78.692 5.80273 78.6213 5.8735 78.6213 6.01503L78.4797 18.6114C78.4797 18.8237 78.692 18.9653 78.9043 18.9653C79.1166 18.9653 79.3289 18.8237 79.3289 18.6114L79.0459 6.01503Z" fill="#112E45"/>
<path d="M75.5783 0.212299C75.5783 0.0707662 75.5075 0 75.366 0C75.2245 0 75.1537 0.0707662 75.1537 0.212299L74.9414 15.427C74.9414 15.7101 75.1537 15.8516 75.366 15.8516C75.5783 15.8516 75.7906 15.6393 75.7906 15.3563L75.5783 0.212299Z" fill="#112E45"/>
<path d="M71.8277 5.87354C71.6862 5.87354 71.6154 5.9443 71.6154 6.08583L71.4739 18.6115C71.4739 18.8238 71.6862 18.9653 71.8985 18.9653C72.1108 18.9653 72.3231 18.8238 72.3231 18.6115L72.1108 6.01507C72.04 5.9443 71.9692 5.87354 71.8277 5.87354Z" fill="#112E45"/>
<path d="M79.0459 6.01503C79.0459 5.94427 78.9751 5.80273 78.8336 5.80273C78.692 5.80273 78.6213 5.8735 78.6213 6.01503L78.4797 18.6114C78.4797 18.8237 78.692 18.9653 78.9043 18.9653C79.1166 18.9653 79.3289 18.8237 79.3289 18.6114L79.0459 6.01503Z" fill="#112E45"/>
<path d="M82.8673 30.5001C83.0088 29.8633 83.0796 29.2264 83.0796 28.5895C83.0796 24.2727 79.612 20.8052 75.2953 20.8052C70.9785 20.8052 67.511 24.2727 67.511 28.5895C67.511 29.2264 67.5817 29.8633 67.7233 30.5001H82.8673Z" fill="#016DF4"/>
<path d="M81.2397 30.5003C81.735 28.6604 81.3812 26.5374 80.1782 25.0513C79.0459 23.4944 77.1352 22.6452 75.2953 22.6452C73.4554 22.6452 71.6155 23.5652 70.4832 25.122C69.3509 26.6081 68.9971 28.6604 69.5632 30.4295L69.3509 30.288L81.2397 30.5003ZM81.3104 30.5003L69.4217 30.7126C69.2802 30.7126 69.2094 30.6418 69.2094 30.571C68.5725 28.6604 68.9263 26.3958 70.1294 24.7682C71.3324 23.1406 73.3138 22.0791 75.3661 22.0791C76.3568 22.0791 77.4183 22.3622 78.2675 22.7868C79.1874 23.2821 79.9659 23.9898 80.532 24.7682C81.6643 26.4666 82.0181 28.6604 81.3104 30.5003Z" fill="#112E45"/>
<path d="M82.8672 30.4293C82.8672 29.9339 82.938 29.297 82.8672 28.7309C82.8672 28.4478 82.7965 28.1648 82.7257 27.8817C82.6549 27.5986 82.5842 27.3156 82.5134 27.0325C82.2303 25.971 81.6642 24.9803 80.9565 24.1311C80.2489 23.2819 79.3997 22.5742 78.409 22.0789C77.4182 21.5835 76.3567 21.2297 75.2245 21.0882C72.96 20.8759 70.5539 22.0789 69.3509 23.9896C68.0771 25.9003 67.7233 28.2355 68.2894 30.3585L67.7233 29.8632C68.9263 29.8632 70.2001 29.7924 71.4031 29.7924C72.6061 29.7924 73.8799 29.8632 75.0829 29.8632C76.3567 29.9339 77.5598 30.0047 78.8336 30.0755C80.1781 30.217 81.5227 30.3585 82.8672 30.4293ZM82.938 30.5708C81.735 30.7124 80.5319 30.7831 79.3289 30.8539C78.1259 30.9247 76.8521 30.9954 75.5783 31.0662C74.3045 31.137 73.0307 31.137 71.7569 31.137C70.4831 31.137 69.1386 31.137 67.8648 31.0662C67.5817 31.0662 67.3694 30.8539 67.2987 30.5708C67.0156 29.3678 67.0156 28.0232 67.2987 26.8202C67.5817 25.6172 68.2186 24.4849 69.0678 23.565C70.6954 21.725 73.0307 20.6636 75.4368 20.4513C76.6398 20.3805 77.9136 20.5928 79.0459 21.0882C80.1781 21.5835 81.2396 22.4327 81.9473 23.4234C83.4334 25.5464 83.858 28.2355 82.938 30.5708Z" fill="#112E45"/>
<path d="M66.4495 29.7925L84.2826 30.1463C84.4949 30.1463 84.6364 30.2878 84.6364 30.5001C84.6364 30.7124 84.4949 30.854 84.2826 30.854L66.4495 31.2078C66.0249 31.2078 65.7419 30.9247 65.7419 30.5001C65.6711 30.1463 66.0249 29.7925 66.4495 29.7925C66.3787 29.7925 66.4495 29.7925 66.4495 29.7925Z" fill="#112E45"/>
</g>
<defs>
<clipPath id="clip0_481_12888">
<rect width="145" height="119.878" fill="white"/>
</clipPath>
</defs>
</svg>
