<svg width="145" height="121" viewBox="0 0 145 121" fill="none" xmlns="http://www.w3.org/2000/svg">
<g clip-path="url(#clip0_481_12886)">
<path d="M78.4993 114.088L78.0926 113.783L77.2791 113.173L75.6522 111.953C74.6353 111.139 73.5168 110.427 72.3983 109.716C70.263 108.19 68.0259 106.767 65.7889 105.343C61.3149 102.598 56.8408 99.954 52.1634 97.4119L48.7062 95.5816C47.5877 94.9715 46.4691 94.3614 45.4523 93.6497C43.317 92.3278 41.385 90.5992 39.7581 88.7689C36.5042 85.0066 34.3689 80.3292 33.2504 75.4484C32.1318 70.4659 31.9285 65.3818 31.8268 60.1959C31.8268 58.8741 31.8268 57.5522 31.7251 56.2303L31.4201 52.2647L30.81 44.4351C29.9965 33.9617 29.183 23.5901 28.2679 13.1167C28.2679 12.9133 28.1662 12.71 28.0645 12.5066C27.6578 12.0999 27.0477 11.9982 26.641 12.4049L20.6417 17.5908C20.4383 17.7941 20.3366 17.9975 20.3366 18.3025L21.7602 33.9617C22.1669 39.1476 22.5736 44.4351 22.9804 49.6209C23.1837 52.2647 23.2854 54.8067 23.4888 57.4505L23.6921 61.3145C23.7938 62.6363 23.6921 63.8565 23.6921 65.1784C23.5905 70.3642 23.6921 75.7534 24.8107 81.041C25.4208 83.6847 26.1325 86.2268 27.3527 88.6672C28.5729 91.1076 29.9965 93.4463 31.8268 95.4799C33.6571 97.5136 35.7924 99.3439 38.1311 100.767C39.2497 101.479 40.4698 102.089 41.69 102.699L45.1473 104.428C54.4004 109.105 63.5519 114.291 72.2966 119.884C72.5 119.986 72.7034 119.986 72.9067 119.782C74.9404 117.952 76.9741 116.02 78.8043 114.291C78.8043 114.291 78.601 114.19 78.4993 114.088Z" fill="#112E45"/>
<path d="M27.251 17.3877L23.6921 17.8961L27.251 18.4045V17.3877Z" fill="white"/>
<path d="M27.5561 25.5225L23.9972 26.3359L27.5561 26.5393V25.5225Z" fill="white"/>
<path d="M27.8612 33.7588L24.4039 34.8773L27.8612 34.7756V33.7588Z" fill="white"/>
<path d="M28.1662 42.1982L24.709 43.6218L28.1662 43.2151V42.1982Z" fill="white"/>
<path d="M28.3695 50.2314L25.014 51.9601L28.4712 51.2483L28.3695 50.2314Z" fill="white"/>
<path d="M28.6746 58.6709L25.4207 60.7046L28.7763 59.6877L28.6746 58.6709Z" fill="white"/>
<path d="M28.7763 66.1953L25.5224 68.534L28.9797 67.2121L28.7763 66.1953Z" fill="white"/>
<path d="M29.0813 74.6353L25.9292 77.279L29.2847 75.5504L29.0813 74.6353Z" fill="white"/>
<path d="M31.8268 84.1934L28.6746 87.1422L32.0302 85.1085L31.8268 84.1934Z" fill="white"/>
<path d="M39.3513 90.0908L33.6571 93.243L39.7581 91.006L39.3513 90.0908Z" fill="white"/>
<path d="M44.8422 95.7852L39.3513 99.3441L45.3506 96.7003L44.8422 95.7852Z" fill="white"/>
<path d="M51.1466 99.4458L45.6557 103.208L51.655 100.259L51.1466 99.4458Z" fill="white"/>
<path d="M59.5863 103.717L54.1971 107.886L60.1964 104.53L59.5863 103.717Z" fill="white"/>
<path d="M61.7216 112.258L67.6192 108.597L67.0091 107.784L61.7216 112.258Z" fill="white"/>
<path d="M73.9235 111.953L68.8394 116.631L74.6353 112.767L73.9235 111.953Z" fill="white"/>
<path d="M78.7026 107.377C78.3976 104.937 78.2959 102.598 78.0925 100.158C77.9909 98.9373 77.9908 97.7171 77.9908 96.5986V93.0397C77.9908 90.5993 78.0925 88.2606 78.2959 85.8202C78.3976 83.3798 78.6009 81.0411 78.8043 78.6007C78.8043 78.499 78.906 78.499 78.906 78.499C78.906 78.499 79.0077 78.499 79.0077 78.6007C79.211 81.0411 79.4144 83.3798 79.5161 85.8202C79.6178 88.2606 79.8211 90.5993 79.8211 93.0397V96.5986C79.8211 97.8188 79.7195 99.039 79.7195 100.158C79.5161 102.598 79.4144 104.937 79.1094 107.377C78.906 107.479 78.8043 107.479 78.7026 107.377C78.7026 107.479 78.7026 107.479 78.7026 107.377Z" fill="#112E45"/>
<path d="M78.906 10.2695C79.2111 11.388 79.3128 12.5066 79.4145 13.6251C79.5161 14.7436 79.5161 15.8621 79.4145 16.9806C79.3128 18.0991 79.0077 19.2176 79.0077 20.3362C78.906 21.4547 79.0077 22.5732 79.2111 23.6917C79.4145 24.8102 79.5161 25.9287 79.5161 27.0472C79.6178 28.1657 79.6178 29.2843 79.6178 30.4028C79.5162 32.6398 79.3128 34.8768 78.8044 37.1138L78.7027 37.2155C78.7027 37.2155 78.601 37.2155 78.601 37.1138C78.0926 34.8768 77.8892 32.6398 77.7875 30.4028C77.7875 29.2843 77.7875 28.1657 77.8892 27.0472C77.8892 25.9287 78.0926 24.8102 78.1943 23.6917C78.296 22.5732 78.3976 21.4547 78.3976 20.3362C78.3976 19.2176 78.0926 18.0991 77.9909 16.9806C77.8892 15.8621 77.9909 14.7436 77.9909 13.6251C78.0926 12.5066 78.1943 11.388 78.4993 10.2695C78.7027 10.2695 78.8044 10.2695 78.906 10.2695Z" fill="#112E45"/>
<path d="M78.8044 107.275C82.3633 104.631 86.1255 102.191 89.8878 99.8523C93.6501 97.5136 97.6157 95.2766 101.581 93.243C103.513 92.2261 105.547 91.2093 107.479 90.0908L108.191 89.684L108.801 89.1756L110.123 88.1588C110.529 87.8538 110.936 87.447 111.343 87.0403L112.461 85.9218C115.41 82.6679 117.241 78.4989 118.257 74.2282C119.274 69.9575 119.478 65.4835 119.376 61.0094C119.376 58.7724 119.478 56.5354 119.579 54.2984L119.986 47.5873L121.511 20.8446L122.121 21.5564C118.359 21.5564 114.597 21.048 110.835 20.3362C107.174 19.7261 103.513 18.811 99.8527 17.7942C96.1922 16.879 92.6333 15.7605 89.0743 14.5403C85.5154 13.4218 81.9565 12.2016 78.3976 10.778H78.906C75.3471 12.0999 71.7882 13.3201 68.2293 14.4386C64.6704 15.5571 61.1115 16.6756 57.4509 17.5908C53.7903 18.5059 50.1297 19.4211 46.4692 20.1329C42.8086 20.743 39.0463 21.3531 35.1823 21.3531L35.7924 20.743L37.3177 47.4856L37.7244 54.1967C37.8261 56.4337 37.9278 58.6707 37.9278 60.9078C37.9278 65.3818 38.1311 69.8559 39.0463 74.1265C40.0631 78.3972 41.8934 82.5662 44.8422 85.8201L46.0624 86.9386C46.4692 87.3453 46.8759 87.7521 47.2826 88.0571L48.6045 89.074L49.2146 89.5824L49.9264 89.9891C51.7567 91.1076 53.7903 92.1244 55.824 93.1413C59.7896 95.2766 63.6536 97.412 67.5175 99.7507C71.4832 102.293 75.2455 104.733 78.8044 107.275ZM78.8044 107.479C71.3815 102.293 63.7553 97.8187 55.824 93.7514C53.7903 92.7345 51.8584 91.8194 49.9264 90.5992L49.2146 90.1925L48.5028 89.684L47.1809 88.6672C46.6725 88.3622 46.3675 87.9554 45.9607 87.5487L44.7405 86.3285C41.5884 82.973 39.6564 78.7023 38.6396 74.4316C37.521 70.0592 37.3177 65.4835 37.3177 61.0094C37.3177 58.7724 37.216 56.5354 37.0126 54.2984L36.6059 47.5873L34.979 20.8446C34.979 20.5396 35.1823 20.2345 35.4874 20.2345C39.148 20.2345 42.9102 19.6244 46.5708 19.0143C50.2314 18.3026 53.892 17.4891 57.4509 16.4723C61.0098 15.4554 64.6704 14.4386 68.1276 13.2184C71.6865 12.0999 75.2455 10.8797 78.7027 9.45615C78.906 9.35446 79.1094 9.35446 79.2111 9.45615C82.6683 10.778 86.2272 11.9982 89.7861 13.1167C93.345 14.2352 96.9039 15.3538 100.463 16.2689C104.022 17.1841 107.682 18.0992 111.343 18.811C115.004 19.5228 118.664 20.0312 122.325 20.0312C122.731 20.0312 122.935 20.3362 122.935 20.743L121.308 47.4856L120.901 54.1967C120.698 56.4337 120.596 58.569 120.596 60.9078C120.596 65.3818 120.291 69.9575 119.274 74.3299C118.156 78.7023 116.224 82.973 113.173 86.3285L111.953 87.5487C111.546 87.9554 111.14 88.3622 110.631 88.6672L109.309 89.684L108.597 90.1925L107.886 90.5992C105.954 91.8194 103.92 92.7345 101.988 93.7514C93.9551 97.9204 86.2272 102.293 78.8044 107.479Z" fill="#112E45"/>
<path d="M101.785 60.1963C101.378 72.2966 91.108 81.8548 78.8044 81.8548C66.5007 81.8548 56.2307 72.2966 55.824 60.1963C55.4173 47.6893 65.6872 37.1143 78.8044 37.1143C91.9215 37.1143 102.191 47.6893 101.785 60.1963Z" fill="#00E497"/>
<path d="M66.5007 51.0448C68.026 52.0616 69.3478 53.1801 70.7714 54.2986C72.195 55.4172 73.5168 56.6374 74.8387 57.8576C76.1606 59.0777 77.4825 60.3996 78.8044 61.7215C80.0246 63.1451 81.3464 64.5686 82.4649 66.5006L74.9404 66.9073C76.7707 62.2299 79.5161 58.1626 82.77 54.8071C86.0239 51.4515 89.7861 48.8078 93.7518 46.6724C97.7174 44.5371 101.683 42.7068 105.75 41.0799C109.818 39.4529 113.885 38.0294 118.054 36.8092C118.359 36.7075 118.664 36.9108 118.766 37.2159C118.867 37.5209 118.664 37.7243 118.461 37.9277C114.597 39.6563 110.835 41.7916 107.276 44.0287C103.717 46.2657 100.259 48.8078 97.209 51.5532C95.6837 52.8751 94.1585 54.2986 92.7349 55.7222C91.3114 57.1458 89.8878 58.5693 88.6676 60.0946C86.1255 63.0434 83.9902 66.1956 82.77 69.5511L82.6683 69.9578C81.9565 71.9915 79.7195 73.0083 77.6858 72.3982C76.4657 71.9915 75.6522 71.0763 75.2455 69.9578C74.8387 68.636 74.1269 67.2124 73.4152 65.7888C72.7034 64.3653 71.7882 62.9417 70.7714 61.5181C69.8563 60.0946 68.8394 58.671 67.8226 57.3491C66.8058 56.0273 65.6873 54.6037 64.5687 53.2818C64.0603 52.6717 64.0603 51.6549 64.7721 51.1465C65.1788 50.6381 65.9923 50.6381 66.5007 51.0448Z" fill="#112E45"/>
<path d="M130.256 12.9135C125.884 12.9135 121.511 12.3034 117.139 11.49C112.766 10.7782 108.496 9.65967 104.225 8.43947C99.8527 7.32096 95.6837 5.99908 91.5147 4.57552C87.244 3.15196 83.075 1.62671 79.0077 -0.000217695C78.906 -0.000217695 78.7027 -0.101901 78.601 -0.000217695C74.432 1.52503 70.263 2.94859 66.094 4.27047C61.925 5.59235 57.6543 6.91423 53.3836 7.93106C49.0112 9.15126 44.7405 10.1681 40.4698 10.8799C36.0975 11.6933 31.8268 12.2017 27.4544 12.3034C27.4544 12.3034 27.4544 12.3034 27.3527 12.3034C26.8443 12.3034 26.3359 12.8118 26.4376 13.3203C27.1494 23.7936 27.7595 34.1653 28.5729 44.6386L29.0813 52.4682L29.3864 56.3322C29.4881 57.5524 29.4881 58.8743 29.4881 60.1961C29.4881 65.382 29.7931 70.7712 31.115 75.957C32.4369 81.1428 34.7756 86.1253 38.3345 90.1926C39.2496 91.1078 40.2665 92.1246 41.2833 92.9381L42.9102 94.1583C43.4187 94.565 43.9271 94.9717 44.5372 95.2768C45.7574 95.8869 46.8759 96.5987 48.0961 97.2088L51.655 98.9374C56.3324 101.276 60.9081 103.716 65.4839 106.259C70.0596 108.801 74.432 111.546 78.906 114.495C81.1431 112.97 83.2784 111.648 85.6171 110.224C87.8541 108.902 90.0912 107.58 92.3282 106.259C96.9039 103.716 101.48 101.174 106.157 98.8357L109.716 97.1071C110.936 96.497 112.055 95.7852 113.275 95.1751C113.885 94.87 114.393 94.4633 114.902 94.0566L116.529 92.8364C117.546 91.9212 118.461 91.0061 119.478 90.0909C123.036 86.0236 125.375 81.0412 126.697 75.8553C127.307 73.2116 127.714 70.6695 127.917 68.0257C128.121 65.382 128.222 62.7382 128.222 60.0945C128.222 58.7726 128.222 57.4507 128.324 56.2305L128.527 52.3665C128.731 49.7228 128.832 47.1807 129.036 44.5369L130.866 13.2186C130.561 13.1169 130.459 12.9135 130.256 12.9135ZM127.205 44.5369C127.002 47.1807 126.799 49.7228 126.595 52.3665L126.29 56.3322C126.189 57.6541 126.189 58.9759 126.189 60.2978C126.087 65.4837 125.884 70.6695 124.765 75.652C123.545 80.6344 121.41 85.4135 118.054 89.1758C117.139 90.0909 116.325 91.0061 115.309 91.8196L113.783 92.9381C113.275 93.3448 112.766 93.7515 112.258 94.0566C111.14 94.6667 110.123 95.3785 108.903 95.9886L105.445 97.8189C100.768 100.259 96.2938 102.801 91.8198 105.648C89.5827 107.072 87.3457 108.394 85.2104 109.919C83.075 111.343 80.838 112.868 78.8043 114.393C78.8043 114.292 78.601 114.19 78.4993 114.088L78.0926 113.783L77.2791 113.173L75.6522 112.054C74.5337 111.343 73.5168 110.529 72.3983 109.817C70.263 108.394 68.0259 106.97 65.7889 105.547C61.3149 102.801 56.7391 100.259 52.1634 97.7172L48.7062 95.8869C47.5877 95.2768 46.4691 94.565 45.3506 93.9549C44.7405 93.6499 44.3338 93.2431 43.8254 92.8364L42.3001 91.7179C41.385 90.9044 40.4698 89.9893 39.5547 89.0741C36.1992 85.2102 34.0638 80.4311 32.9453 75.5503C31.8268 70.5678 31.6234 65.382 31.5217 60.1961C31.5217 58.8743 31.5217 57.5524 31.4201 56.2305L31.115 52.2649L30.6066 44.4353C29.9965 34.4703 29.183 24.302 28.4712 14.2354C32.6403 14.1337 36.7076 13.5236 40.7749 12.7102C45.1473 11.8967 49.5196 10.7782 53.7903 9.55799C58.061 8.33779 62.3317 7.01591 66.5007 5.59235C70.6697 4.16879 74.737 2.64354 78.8043 1.01661C82.8717 2.54186 87.0407 3.96542 91.2097 5.2873C95.4804 6.71086 99.6494 8.03274 104.022 9.15125C108.292 10.2698 112.665 11.2866 117.037 12.2017C121.308 13.0152 125.579 13.6253 129.849 13.727L127.205 44.5369Z" fill="#112E45"/>
<path d="M139.407 51.3496C139.814 50.9428 140.323 50.5361 140.729 50.0277C141.136 49.6209 141.644 49.2142 142.051 48.8075C142.458 48.4008 142.966 47.8923 143.373 47.689C143.881 47.4856 144.288 47.2822 144.797 47.4856V47.5873C144.797 47.5873 144.797 47.5873 144.797 47.689C144.39 48.5024 143.983 48.9092 143.475 49.4176C143.068 49.8243 142.56 49.926 142.051 50.231C141.543 50.4344 141.136 50.7395 140.628 50.9428C140.119 51.1462 139.712 51.3496 139.204 51.5529C139.407 51.5529 139.306 51.5529 139.407 51.3496C139.306 51.4512 139.306 51.4512 139.407 51.3496Z" fill="#112E45"/>
<path d="M138.797 59.7892C139.306 59.5859 139.916 59.4842 140.424 59.3825C140.933 59.2808 141.441 59.2808 142.051 59.2808C142.56 59.2808 143.068 59.0774 143.576 59.2808C144.085 59.4842 144.593 59.6875 145 60.196V60.2976C144.492 60.7044 143.881 60.8061 143.373 60.9077C142.865 61.0094 142.356 60.7044 141.848 60.6027L140.323 60.2976C139.814 60.196 139.306 60.0943 138.797 59.9926C138.797 59.8909 138.797 59.8909 138.797 59.7892Z" fill="#112E45"/>
<path d="M137.069 67.2119C137.475 67.4153 137.882 67.7203 138.289 68.0254C138.696 68.3304 139.102 68.7372 139.407 69.0422C139.814 69.4489 140.221 69.754 140.424 70.3641C140.729 70.9742 140.933 71.686 140.933 72.6011V72.7028C140.526 72.4994 140.119 72.0927 139.814 71.686C139.509 71.2792 139.204 70.6691 139.001 70.1607C138.696 69.6523 138.391 69.1439 138.086 68.7372C137.78 68.2287 137.475 67.822 137.069 67.3136C136.967 67.3136 136.967 67.3136 137.069 67.2119C136.967 67.2119 137.069 67.2119 137.069 67.2119Z" fill="#112E45"/>
<path d="M11.2868 48.2994C10.4734 47.6893 9.6599 47.0792 8.84643 46.3674C8.03297 45.7573 7.11782 45.1472 6.30436 44.6388C5.4909 44.0287 4.67743 43.2152 3.76228 42.9102C2.84714 42.6051 1.93199 42.3001 0.91516 42.4018C0.813477 42.4018 0.813477 42.5035 0.813477 42.5035V42.6051C1.62694 43.7237 2.44041 44.4354 3.25387 45.1472C4.16902 45.7573 5.08416 45.9607 5.99931 46.3674C6.91446 46.7741 7.72792 47.1809 8.64307 47.4859C9.55822 47.791 10.3717 48.1977 11.2868 48.5028C11.2868 48.5028 11.3885 48.5028 11.3885 48.4011L11.2868 48.2994Z" fill="#112E45"/>
<path d="M11.9986 59.6879C10.9818 59.3829 9.96493 59.2812 9.04979 59.1795C8.03296 59.0778 7.01613 58.9761 5.9993 58.9761C4.98247 58.9761 3.96564 58.7728 2.94881 58.9761C1.93197 59.1795 1.01683 59.5862 0.10168 60.298C0.10168 60.298 -2.52947e-06 60.3997 0.10168 60.5014C0.10168 60.5014 0.10168 60.5014 0.203364 60.6031C1.32188 61.2132 2.33871 61.3148 3.35554 61.4165C4.37237 61.5182 5.28751 61.1115 6.30434 60.9081L9.25315 60.3997C10.1683 60.1963 11.1851 60.0946 12.1003 59.993L12.202 59.8913C11.9986 59.7896 11.9986 59.7896 11.9986 59.6879Z" fill="#112E45"/>
<path d="M14.8457 69.7544C14.0322 70.0594 13.3205 70.5679 12.6087 70.9746C11.8969 71.3813 11.1851 71.9914 10.4733 72.4998C9.76156 73.1099 8.94809 73.5167 8.43968 74.4318C7.93126 75.347 7.42285 76.2621 7.21948 77.584C7.21948 77.6857 7.21948 77.6857 7.32117 77.7874C7.32117 77.7874 7.32117 77.7874 7.42285 77.7874C8.338 77.3806 8.94809 76.8722 9.55819 76.2621C10.1683 75.652 10.6767 74.8385 11.2868 74.1268C11.8969 73.415 12.507 72.7032 13.1171 72.0931C13.7272 71.3813 14.3373 70.7712 14.9474 70.1611C14.9474 69.9578 14.9474 69.8561 14.8457 69.7544C14.9474 69.7544 14.8457 69.7544 14.8457 69.7544Z" fill="#112E45"/>
</g>
<defs>
<clipPath id="clip0_481_12886">
<rect width="145" height="120.189" fill="white"/>
</clipPath>
</defs>
</svg>
