<svg width="145" height="129" viewBox="0 0 145 129" fill="none" xmlns="http://www.w3.org/2000/svg">
<g clip-path="url(#clip0_481_12885)">
<path d="M66.1771 20.8L54.5771 21.4C47.4459 21.7 40.4098 22.1 33.2787 22.3L27.9541 22.5L25.2918 22.6C24.4361 22.7 23.6754 22.4 23.0098 21.9C21.6787 20.9 21.2033 18.8 21.9639 17.3C22.3443 16.6 22.9148 16 23.6754 15.6C24.0557 15.4 24.4361 15.4 24.8164 15.3C25.1967 15.3 25.6721 15.3 26.1475 15.3L47.4459 16C53.7213 16.1 60.0918 16.3 66.3672 16.4C66.4623 15.9 66.6525 15.4 66.8426 15C60.3771 14.9 53.9115 14.7 47.4459 14.7L26.1475 14.5C25.6721 14.5 25.2918 14.5 24.8164 14.5C24.341 14.5 23.8656 14.7 23.3902 14.9C22.4393 15.3 21.7738 16.1 21.2984 17C20.4426 18.9 21.0131 21.3 22.6295 22.5C23.3902 23.1 24.4361 23.4 25.2918 23.3L27.9541 23.2L33.2787 23C40.4098 22.7 47.4459 22.4 54.5771 22.2L66.3672 21.9C66.2721 21.4 66.2721 21.1 66.1771 20.8Z" fill="#112E45"/>
<path d="M129.692 16.2998C129.121 15.5998 128.266 15.0998 127.41 14.8998C126.934 14.7998 126.459 14.7998 126.079 14.7998H124.748H122.085H111.436C104.305 14.7998 97.2689 14.7998 90.1377 14.8998C88.4262 14.9998 86.7148 14.9998 85.0033 14.9998C85.1934 15.3998 85.2885 15.8998 85.4787 16.3998C87 16.3998 88.6164 16.2998 90.1377 16.1998C97.2689 15.9998 104.305 15.6998 111.436 15.3998L122.085 14.9998L124.748 14.8998H126.079C126.554 14.8998 126.934 14.8998 127.41 14.8998C128.266 14.9998 129.026 15.4998 129.597 16.1998C130.167 16.8998 130.452 17.7998 130.452 18.6998C130.452 19.8998 129.882 21.0998 128.931 21.7998C128.456 22.1998 127.885 22.3998 127.315 22.4998C126.744 22.5998 126.174 22.4998 125.603 22.4998C123.226 22.3998 120.849 22.2998 118.472 22.1998L104.305 21.3998C99.5508 21.0998 94.7967 20.8998 90.1377 20.6998C88.6164 20.5998 87.1902 20.5998 85.6689 20.4998C85.5738 20.8998 85.4787 21.2998 85.3836 21.6998C86.9049 21.7998 88.5213 21.7998 90.0426 21.8998C94.7967 21.9998 99.5508 22.1998 104.305 22.2998L118.567 22.5998C120.944 22.5998 123.321 22.6998 125.698 22.7998C126.269 22.7998 126.839 22.8998 127.505 22.7998C128.075 22.6998 128.646 22.3998 129.121 21.9998C130.072 21.1998 130.643 19.9998 130.643 18.6998C130.548 17.9998 130.262 16.9998 129.692 16.2998Z" fill="#112E45"/>
<path d="M31.7574 128.5H108.013L104.685 126C104.21 125.7 103.734 125.3 103.259 125H44.3082V122.5C44.3082 120.6 45.0689 118.8 46.3049 117.6C45.7344 117 44.8787 116.4 43.8328 115.9C43.8328 115.9 38.223 115.9 31.282 115.9C24.341 115.9 18.7312 115.9 18.7312 115.9C12.5508 118.7 14.1672 124.2 31.282 124.2C33.9443 124.2 36.3213 124.1 38.223 123.8C37.082 124.4 36.0361 125.1 35.0853 125.9L31.7574 128.5Z" fill="#112E45"/>
<path d="M130.072 116C130.072 116 124.462 116 117.521 116C110.58 116 104.97 116 104.97 116C104.685 116.1 104.495 116.2 104.21 116.4C106.492 117.5 108.013 119.8 108.013 122.6V123.6C110.39 124.1 113.528 124.4 117.521 124.4C134.636 124.3 136.252 118.7 130.072 116Z" fill="#112E45"/>
<path d="M101.548 115.8C96.223 115.8 90.9934 116 85.6689 116.3C80.3443 116.6 75.1148 116.7 69.7902 116.7C67.1279 116.7 64.4656 116.6 61.8984 116.5L54.0066 116.2C52.6754 116.2 51.3443 116.1 50.1082 116.1C48.8721 116.2 47.6361 116.7 46.6853 117.6C45.7344 118.5 45.0689 119.6 44.7836 120.9C44.5934 121.5 44.5935 122.2 44.5935 122.9V125L44.2131 124.6L60.1869 124.1C65.5115 124 70.8361 123.9 76.1607 123.9C81.4853 123.8 86.8098 123.9 92.1344 123.9C97.459 124 102.784 124.3 108.108 124.5L107.633 125C107.633 123.9 107.823 122.8 107.728 121.8C107.633 120.8 107.348 119.7 106.777 118.8C106.207 117.9 105.446 117.1 104.59 116.6C103.639 116.1 102.593 115.8 101.548 115.8ZM101.548 115.6C103.639 115.6 105.731 116.7 107.062 118.5C107.728 119.4 108.108 120.5 108.298 121.6C108.393 122.2 108.393 122.7 108.393 123.3L108.489 124.9C108.489 125.1 108.298 125.4 108.108 125.4C102.784 125.7 97.459 126 92.1344 126C86.8098 126.1 81.4853 126.1 76.1607 126C70.8361 125.9 65.5115 125.9 60.1869 125.8L44.2131 125.3C44.023 125.3 43.8328 125.1 43.8328 124.9V122.8C43.8328 122.1 43.9279 121.3 44.118 120.7C44.4033 119.3 45.259 118 46.3049 117C47.3508 116 48.682 115.4 50.0131 115.3C51.4394 115.2 52.6754 115.2 54.0066 115.2L61.8984 114.9C64.5607 114.8 67.223 114.7 69.7902 114.7C75.1148 114.6 80.3443 114.8 85.6689 115.1C90.9934 115.4 96.318 115.6 101.548 115.6Z" fill="#112E45"/>
<path d="M109.249 116C108.869 116.2 108.489 116.4 108.203 116.6C107.538 117 106.872 117.4 106.207 117.8C106.302 117.9 106.302 117.9 106.302 118C106.397 118.1 106.397 118.1 106.492 118.2C106.492 118.3 106.587 118.3 106.587 118.4C107.157 118 107.728 117.5 108.298 117C108.774 116.6 109.154 116.3 109.63 116C109.534 116 109.439 116 109.249 116Z" fill="white"/>
<path d="M120.754 120.6C121.325 120.2 121.99 119.7 122.561 119.2C123.131 118.7 123.702 118.3 124.367 117.9C125.033 117.5 125.698 117.2 126.364 116.8C126.744 116.6 127.125 116.3 127.505 116C127.125 116 126.744 116 126.269 116C126.174 116.1 126.079 116.1 125.984 116.2C125.413 116.7 124.843 117.2 124.272 117.6C123.702 118 123.036 118.4 122.371 118.8C121.705 119.2 121.039 119.5 120.469 119.9C119.803 120.3 119.233 120.7 118.567 121.1C117.331 122 116.19 122.9 115.049 123.9V124C116.38 123.4 117.711 122.6 118.948 121.8C119.518 121.4 120.184 121 120.754 120.6Z" fill="white"/>
<path d="M132.639 117.7C132.259 118 131.784 118.4 131.403 118.7C130.738 119.2 130.072 119.5 129.407 119.9C128.741 120.3 128.075 120.6 127.41 121.1C126.744 121.5 126.079 121.9 125.508 122.4C124.748 122.9 123.987 123.5 123.226 124.1C123.702 124.1 124.082 124 124.557 124C125.033 123.7 125.508 123.5 125.984 123.2C126.649 122.8 127.22 122.3 127.885 121.9C128.551 121.4 129.121 121 129.692 120.5C130.262 120 130.928 119.5 131.593 119.1C132.069 118.8 132.544 118.5 133.02 118.3C132.83 117.9 132.734 117.8 132.639 117.7Z" fill="white"/>
<path d="M117.807 116C117.521 116.2 117.331 116.4 117.046 116.6C116.475 117 115.81 117.4 115.239 117.7C114.574 118 114.003 118.4 113.338 118.8C112.672 119.2 112.102 119.6 111.531 120C110.295 120.8 109.154 121.7 108.108 122.8V122.9C109.439 122.3 110.675 121.6 111.911 120.8C112.482 120.4 113.148 120 113.718 119.5C114.289 119.1 114.859 118.6 115.43 118.1C116 117.6 116.571 117.2 117.236 116.8C117.711 116.5 118.187 116.3 118.662 116C118.377 116 118.092 116 117.807 116Z" fill="white"/>
<path d="M133.495 118.6C133.305 118.1 133.02 117.7 132.639 117.4C131.879 116.7 131.023 116.3 130.167 115.9C128.075 115.8 125.984 115.7 123.892 115.6C121.8 115.5 119.708 115.5 117.616 115.5C115.525 115.5 113.433 115.5 111.341 115.6C109.249 115.7 107.157 115.8 105.066 115.8C105.066 115.8 105.066 115.8 104.971 115.8C104.685 115.9 104.4 116.1 104.115 116.2C104.21 116.3 104.4 116.3 104.495 116.4C104.685 116.3 104.875 116.2 105.066 116.1C107.157 116.1 109.249 116.2 111.341 116.3C113.433 116.4 115.525 116.4 117.616 116.4C119.708 116.4 121.8 116.4 123.892 116.3C125.984 116.2 128.075 116.2 130.167 116C131.023 116.4 131.784 116.9 132.449 117.6C133.115 118.3 133.495 119.2 133.115 120C132.734 120.8 131.974 121.3 131.213 121.7C130.452 122.1 129.502 122.4 128.646 122.6C125.128 123.5 121.325 123.6 117.711 123.7C114.574 123.7 111.341 123.6 108.203 123V123.7C111.341 124.4 114.574 124.6 117.711 124.6C121.42 124.6 125.223 124.4 128.931 123.3C129.882 123 130.738 122.7 131.593 122.2C132.449 121.7 133.305 121.1 133.685 120C133.685 119.7 133.685 119.1 133.495 118.6Z" fill="#112E45"/>
<path d="M22.059 116C21.7738 116.2 21.4885 116.4 21.2033 116.6C20.6328 117 20.1574 117.5 19.5869 117.9C19.0164 118.3 18.4459 118.7 17.7803 119C17.0197 119.4 16.3541 119.8 15.5934 120.3C15.6885 120.5 15.7836 120.7 15.9738 120.9C16.6393 120.4 17.3049 119.9 17.9705 119.4C18.541 119 19.1115 118.5 19.682 118.1C20.2525 117.7 20.918 117.4 21.4885 117.1C22.059 116.8 22.5344 116.4 23.1049 116C22.7246 116 22.4393 116 22.059 116Z" fill="white"/>
<path d="M31.282 116C31.1869 116 31.0918 116 30.9967 116C30.141 116.5 29.2852 117 28.4295 117.6C27.859 118.1 27.2885 118.6 26.718 119C26.1475 119.4 25.482 119.8 24.9115 120.1C24.2459 120.4 23.6754 120.8 23.0098 121.2C22.3443 121.6 21.7738 122 21.2033 122.4C20.8229 122.6 20.5377 122.9 20.2525 123.1C20.5377 123.2 20.8229 123.3 21.2033 123.3C21.3934 123.2 21.4885 123.1 21.6787 123C22.2492 122.6 22.9148 122.2 23.4852 121.7C24.0557 121.3 24.6262 120.8 25.1967 120.3C25.7672 119.8 26.3377 119.4 27.0033 119C27.5738 118.6 28.2393 118.3 28.9049 117.9C29.9508 117.3 30.8066 116.6 31.7574 115.8C31.4721 116 31.377 116 31.282 116Z" fill="white"/>
<path d="M33.9443 120.2C34.6098 119.8 35.2754 119.5 35.941 119.1C37.177 118.3 38.4131 117.4 39.5541 116.3V116.2C38.1279 116.8 36.8918 117.6 35.6557 118.5C35.0852 119 34.5148 119.5 33.9443 119.9C33.3738 120.3 32.7082 120.7 32.0426 121.1C31.3771 121.5 30.7115 121.8 30.141 122.2C29.4754 122.6 28.9049 123 28.2393 123.4C27.9541 123.6 27.6689 123.8 27.3836 124C27.7639 124 28.2393 124 28.7148 124.1C29.2852 123.7 29.9508 123.3 30.5213 122.8C31.0918 122.4 31.7574 121.9 32.3279 121.4C32.7082 121.1 33.2787 120.6 33.9443 120.2Z" fill="white"/>
<path d="M37.5574 124C38.1279 123.6 38.6984 123.1 39.2689 122.7C39.8393 122.2 40.5049 121.7 41.1705 121.3C41.8361 120.9 42.5016 120.6 43.1672 120.2C44.118 119.6 44.9738 119 45.8295 118.3C46.0197 118.1 46.2098 117.9 46.4 117.7L46.3049 117.6C45.0689 118.2 43.9279 118.9 42.882 119.7C42.3115 120.2 41.741 120.7 41.0754 121.2C40.4098 121.7 39.7443 122 39.0787 122.4C38.4131 122.8 37.7475 123.1 37.082 123.6C36.7016 123.8 36.4164 124.1 36.0361 124.3C36.5115 124.1 36.9869 124 37.5574 124Z" fill="white"/>
<path d="M42.4066 126.6C43.0721 126.2 43.7377 125.7 44.3082 125.2C44.4033 125.1 44.4984 125 44.5935 124.9H44.2131V124.3C44.118 124.4 44.023 124.4 43.9279 124.5C43.2623 124.9 42.5967 125.3 41.9312 125.8C40.7902 126.6 39.6492 127.5 38.6033 128.5H39.0787C40.2197 127.9 41.3607 127.3 42.4066 126.6Z" fill="white"/>
<path d="M48.8721 127C48.2066 127.5 47.541 128 46.8754 128.5H48.2066C48.5869 128.3 48.9672 128 49.3475 127.8C50.0131 127.4 50.6787 126.9 51.3443 126.4C51.9148 126 52.5803 125.5 53.1508 125H52.1049C51.7246 125.2 51.3443 125.4 50.9639 125.7C50.2984 126.1 49.5377 126.5 48.8721 127Z" fill="white"/>
<path d="M58 126.8C57.3344 127.2 56.5738 127.7 55.9082 128.2C55.718 128.3 55.623 128.4 55.4328 128.6H57.0492C57.5246 128.3 58 128 58.3803 127.6C59.0459 127.1 59.7115 126.6 60.3771 126C60.7574 125.7 61.2328 125.3 61.7082 125H61.1377C60.8525 125.2 60.4721 125.4 60.1869 125.6C59.4262 125.9 58.6656 126.4 58 126.8Z" fill="white"/>
<path d="M67.223 126.6C66.4623 127 65.7016 127.4 64.941 127.9C64.6557 128.1 64.2754 128.3 63.9902 128.5H65.6066C66.1771 128 66.8426 127.6 67.4131 127.1C68.0787 126.5 68.7443 126 69.5049 125.6C69.7902 125.4 70.1705 125.2 70.5508 125H69.7902C69.6951 125.1 69.5049 125.2 69.4098 125.3C68.7443 125.8 67.9836 126.2 67.223 126.6Z" fill="white"/>
<path d="M74.259 127.7C73.7836 127.9 73.3082 128.2 72.8328 128.5H74.1639C74.259 128.4 74.4492 128.3 74.5443 128.2C75.2098 127.6 75.9705 127.1 76.6361 126.6C77.3967 126.1 78.1574 125.8 78.918 125.3C79.1082 125.2 79.2984 125.1 79.4885 124.9H78.0623C77.4918 125.4 77.0164 125.8 76.4459 126.3C75.7803 126.9 75.0197 127.3 74.259 127.7Z" fill="white"/>
<path d="M83.6721 127.4C83.1016 127.8 82.5312 128.2 81.9607 128.5H82.7213C83.1016 128.2 83.482 127.9 83.8623 127.7C84.623 127.2 85.4787 126.8 86.2394 126.4C86.9049 126 87.6656 125.5 88.3312 125H86.8098C86.5246 125.2 86.1443 125.4 85.859 125.7C85.0033 126.2 84.3377 126.9 83.6721 127.4Z" fill="white"/>
<path d="M90.7082 128.5H91.3738C92.0394 128.1 92.7049 127.8 93.3705 127.4C94.5115 126.7 95.6525 125.9 96.6984 125H95.5574C94.6066 125.5 93.7508 126.1 92.8951 126.7C92.1344 127.3 91.4689 127.9 90.7082 128.5Z" fill="white"/>
<path d="M100.502 128.5C101.833 127.7 103.069 126.8 104.21 125.7C104.115 125.6 103.925 125.5 103.83 125.4C102.498 126.1 101.167 126.8 100.026 127.7C99.741 128 99.3607 128.2 99.0754 128.5H100.502Z" fill="white"/>
<path d="M108.203 128.3L104.495 125.6C104.21 125.4 103.925 125.2 103.544 125H103.069C103.449 125.3 103.925 125.5 104.305 125.8L107.443 128.3L88.9967 128.1C82.6262 128 76.2557 128.1 69.8853 128H50.7738L32.7082 128.1L34.9902 126.3C36.0361 125.5 37.082 124.8 38.223 124.1C38.318 124 38.4131 123.9 38.4131 123.8C38.4131 123.6 38.223 123.5 38.1279 123.5C35.7508 123.8 33.2787 123.9 30.8066 123.9C28.3344 123.9 25.9574 123.8 23.4853 123.5C22.2492 123.3 21.1082 123.1 19.8721 122.8C18.7312 122.5 17.5902 122 16.5443 121.3C16.0689 120.9 15.5934 120.5 15.4984 119.9C15.3082 119.3 15.4033 118.7 15.7836 118.2C16.4492 117.2 17.4951 116.5 18.6361 116C22.8197 116 27.0033 116.1 31.1869 116.1L43.6426 116.2C44.4984 116.6 45.259 117.1 45.9246 117.8C46.1148 117.6 46.3049 117.4 46.4951 117.2C45.7344 116.4 44.8787 115.9 43.9279 115.4C43.9279 115.4 43.8328 115.4 43.7377 115.4L31.1869 115.5C27.0033 115.5 22.8197 115.6 18.6361 115.6C18.6361 115.6 18.6361 115.6 18.541 115.6C17.4 116.1 16.259 116.8 15.5934 117.9C15.2131 118.5 15.118 119.2 15.3082 119.9C15.4984 120.6 15.9738 121 16.5443 121.4C17.5902 122.2 18.7312 122.6 19.9672 123C21.1082 123.4 22.3443 123.6 23.5803 123.8C26.0525 124.2 28.4295 124.3 30.9016 124.3C32.8984 124.3 34.9902 124.3 36.9869 124.1C36.2262 124.6 35.4656 125.1 34.7049 125.6L31.5672 128C31.4721 128.1 31.4721 128.2 31.4721 128.3C31.4721 128.5 31.6623 128.7 31.8525 128.7L50.9639 128.8H70.0754C76.4459 128.8 82.8164 128.8 89.1869 128.7L108.298 128.5C108.393 128.5 108.393 128.5 108.489 128.4C108.298 128.5 108.203 128.4 108.203 128.3Z" fill="#112E45"/>
<path d="M75.8754 8.89984C78.3475 8.89984 80.9148 9.89984 82.7213 11.6998C84.623 13.4998 85.6689 16.1998 85.7639 18.8998C85.7639 21.5998 84.718 24.2998 82.9115 26.2998C81.1049 28.1998 78.4426 29.3998 75.8754 29.3998C73.3082 29.3998 70.6459 28.2998 68.8394 26.2998C67.0328 24.2998 65.9869 21.5998 65.9869 18.8998C65.9869 16.1998 67.1279 13.5998 69.0295 11.6998C70.8361 9.89984 73.3082 8.79984 75.8754 8.89984ZM75.8754 8.99984C74.6394 8.99984 73.4033 9.29984 72.2623 9.79984C71.1213 10.2998 70.0754 11.0998 69.2197 11.9998C67.5082 13.8998 66.5574 16.3998 66.6525 18.9998C66.6525 21.4998 67.6984 23.9998 69.4098 25.7998C71.1213 27.5998 73.4984 28.5998 75.8754 28.5998C78.2525 28.5998 80.6295 27.5998 82.2459 25.7998C83.9574 24.0998 85.0033 21.5998 85.0033 19.0998C85.0984 16.5998 84.1475 13.9998 82.4361 12.1998C81.5803 11.2998 80.5344 10.4998 79.4885 9.99984C78.3475 9.19984 77.1115 8.99984 75.8754 8.99984Z" fill="#112E45"/>
<path d="M75.8754 24.8999C79.0262 24.8999 81.5803 22.2136 81.5803 18.8999C81.5803 15.5862 79.0262 12.8999 75.8754 12.8999C72.7247 12.8999 70.1705 15.5862 70.1705 18.8999C70.1705 22.2136 72.7247 24.8999 75.8754 24.8999Z" fill="#016DF4"/>
<path d="M75.8754 24.9999C74.3541 24.9999 72.8328 24.3999 71.6918 23.2999C70.5508 22.1999 69.7902 20.5999 69.7902 18.8999C69.7902 17.1999 70.3607 15.4999 71.5016 14.2999C72.6426 13.0999 74.259 12.3999 75.8754 12.3999C77.4918 12.3999 79.1082 13.0999 80.2492 14.2999C81.3902 15.4999 81.9607 17.1999 81.9607 18.8999C81.9607 20.5999 81.2 22.1999 80.059 23.2999C78.823 24.3999 77.3967 24.9999 75.8754 24.9999ZM75.8754 24.7999C77.3967 24.7999 78.823 24.0999 79.7738 22.9999C80.7246 21.8999 81.2951 20.3999 81.2 18.8999C81.2 17.3999 80.5344 15.9999 79.5836 14.9999C78.6328 13.9999 77.2066 13.3999 75.8754 13.3999C73.118 13.2999 70.5508 15.8999 70.5508 18.8999C70.4557 20.3999 71.0262 21.8999 71.9771 22.9999C72.4525 23.5999 73.023 23.9999 73.6885 24.3999C74.3541 24.6999 75.1148 24.7999 75.8754 24.7999Z" fill="#016DF4"/>
<path d="M101.548 115.8C96.223 115.8 90.9934 116 85.6689 116.3C80.3443 116.6 75.1148 116.7 69.7902 116.7C67.1279 116.7 64.4656 116.6 61.8984 116.5L54.0066 116.2C52.6754 116.2 51.3443 116.1 50.1082 116.1C48.8721 116.2 47.6361 116.7 46.6853 117.6C45.7344 118.5 45.0689 119.6 44.7836 120.9C44.5934 121.5 44.5935 122.2 44.5935 122.9V125L44.2131 124.6L60.1869 124.1C65.5115 124 70.8361 123.9 76.1607 123.9C81.4853 123.8 86.8098 123.9 92.1344 123.9C97.459 124 102.784 124.3 108.108 124.5L107.633 125C107.633 123.9 107.823 122.8 107.728 121.8C107.633 120.8 107.348 119.7 106.777 118.8C106.207 117.9 105.446 117.1 104.59 116.6C103.639 116.1 102.593 115.8 101.548 115.8ZM101.548 115.6C103.639 115.6 105.731 116.7 107.062 118.5C107.728 119.4 108.108 120.5 108.298 121.6C108.393 122.2 108.393 122.7 108.393 123.3L108.489 124.9C108.489 125.1 108.298 125.4 108.108 125.4C102.784 125.7 97.459 126 92.1344 126C86.8098 126.1 81.4853 126.1 76.1607 126C70.8361 125.9 65.5115 125.9 60.1869 125.8L44.2131 125.3C44.023 125.3 43.8328 125.1 43.8328 124.9V122.8C43.8328 122.1 43.9279 121.3 44.118 120.7C44.4033 119.3 45.259 118 46.3049 117C47.3508 116 48.682 115.4 50.0131 115.3C51.4394 115.2 52.6754 115.2 54.0066 115.2L61.8984 114.9C64.5607 114.8 67.223 114.7 69.7902 114.7C75.1148 114.6 80.3443 114.8 85.6689 115.1C90.9934 115.4 96.318 115.6 101.548 115.6Z" fill="#112E45"/>
<path d="M94.0361 107.4C90.2328 107.4 86.4295 107.6 82.7213 107.9C78.918 108.2 75.1148 108.3 71.4066 108.3C67.6033 108.2 63.8 108 60.0918 107.8C59.141 107.7 58.2853 107.7 57.4295 108.1C56.6689 108.5 56.0033 109.2 55.5279 110C55.3377 110.4 55.2426 110.9 55.1475 111.3C55.0525 111.7 55.1475 112.2 55.1475 112.7L55.2426 115.7L54.8623 115.3L65.7967 114.8C69.4098 114.7 73.118 114.6 76.7312 114.6C80.3443 114.5 84.0525 114.5 87.6656 114.6C91.2787 114.6 94.9869 114.9 98.6 115.1L98.0295 115.7L98.2197 112.9C98.3148 112 98.3148 111.1 98.0295 110.3C97.7443 109.5 97.2689 108.7 96.5082 108.2C95.7476 107.7 94.8918 107.5 94.0361 107.4ZM94.0361 107.2C94.8918 107.2 95.8426 107.5 96.6033 108C97.3639 108.5 98.0295 109.3 98.3148 110.1C98.5049 110.5 98.6 111 98.6951 111.5C98.7902 112 98.7902 112.4 98.7902 112.9L98.9803 115.7C98.9803 116 98.7902 116.3 98.5049 116.3H98.4098C94.7967 116.6 91.0885 116.8 87.4754 116.8C83.8623 116.9 80.1541 116.9 76.541 116.8C72.9279 116.7 69.2197 116.7 65.6066 116.6L54.6721 116.1C54.482 116.1 54.2918 115.9 54.2918 115.7L54.3869 112.7C54.3869 112.2 54.3869 111.7 54.482 111.2C54.5771 110.7 54.7672 110.2 54.9574 109.7C55.4328 108.8 56.1935 108 57.0492 107.5C57.5246 107.3 58 107.1 58.4754 107C59.0459 106.9 59.4262 106.9 59.9016 106.9C63.7049 106.7 67.5082 106.5 71.2164 106.4C75.0197 106.3 78.823 106.5 82.5312 106.8C86.5246 107 90.3279 107.3 94.0361 107.2Z" fill="#112E45"/>
<path d="M48.8721 66.7998C48.8721 66.7998 39.459 66.7998 27.9541 66.7998C16.4492 66.7998 7.03607 66.7998 7.03607 66.7998C7.03607 74.3998 16.4492 80.5998 27.9541 80.5998C39.459 80.5998 48.8721 74.4998 48.8721 66.7998Z" fill="#016DF4"/>
<path d="M48.777 66.8002C46.7803 62.9002 44.8787 59.0002 43.0721 55.0002C41.2656 51.0002 39.459 47.1002 37.8426 43.0002C36.2262 39.0002 34.6098 34.9002 32.9934 30.9002C31.282 26.9002 29.4754 22.9002 27.5738 19.0002H28.3344C26.718 23.1002 25.1016 27.1002 23.3902 31.1002C21.6787 35.1002 19.9672 39.1002 18.2557 43.1002C16.4492 47.1002 14.6426 51.0002 12.8361 55.0002C11.0295 58.9002 9.12787 62.9002 7.13115 66.8002C7.13115 66.8002 7.03606 66.9002 7.03606 66.8002C7.03606 66.8002 6.94098 66.7002 7.03606 66.7002C8.55738 62.6002 10.1738 58.5002 11.7902 54.5002C13.4066 50.5002 15.118 46.4002 16.8295 42.4002C18.541 38.4002 20.3475 34.4002 22.1541 30.5002C23.9607 26.5002 25.7672 22.6002 27.6688 18.7002C27.7639 18.5002 28.0492 18.4002 28.2393 18.5002C28.3344 18.5002 28.4295 18.6002 28.4295 18.7002C30.0459 22.7002 31.7574 26.8002 33.4689 30.8002C35.2754 34.8002 37.177 38.7002 39.0787 42.6002C40.8852 46.6002 42.5967 50.6002 44.3082 54.6002C45.9246 58.6002 47.541 62.7002 49.0623 66.8002C48.9672 66.8002 48.9672 66.9002 48.777 66.8002C48.777 66.9002 48.8721 66.9002 48.777 66.8002Z" fill="#112E45"/>
<path d="M48.8721 66.8998L38.318 67.1998C34.8951 67.1998 31.4721 67.2998 27.9541 67.2998C24.4361 67.2998 21.0131 67.1998 17.4951 67.0998C13.9771 66.9998 10.5541 66.9998 7.03607 66.9998L7.22623 66.7998C7.22623 69.0998 8.27214 71.3998 9.69836 73.0998C11.1246 74.7998 13.0262 76.1998 15.023 77.1998C19.0164 79.2998 23.4852 80.0998 27.9541 80.0998C30.141 80.0998 32.423 79.8998 34.6098 79.3998C36.7967 78.8998 38.8885 78.1998 40.8853 77.1998C42.882 76.1998 44.7836 74.8998 46.2098 73.0998C46.8754 72.1998 47.541 71.2998 48.0164 70.1998C48.3016 69.6998 48.3967 69.0998 48.5869 68.4998C48.682 68.1998 48.682 67.8998 48.7771 67.6998L48.8721 66.8998ZM48.8721 66.7998C48.9672 69.2998 48.0164 71.5998 46.5902 73.4998C45.1639 75.3998 43.2623 76.8998 41.1705 77.9998C37.082 80.2998 32.423 81.1998 27.859 81.1998C25.5771 81.1998 23.2951 80.8998 21.0131 80.3998C18.7312 79.8998 16.5443 79.0998 14.5475 77.9998C12.5508 76.8998 10.6492 75.3998 9.12787 73.4998C7.70164 71.5998 6.75082 69.2998 6.75082 66.7998C6.75082 66.6998 6.84591 66.5998 6.94099 66.5998C10.459 66.5998 13.882 66.5998 17.4 66.4998C20.918 66.3998 24.341 66.2998 27.859 66.2998C31.3771 66.2998 34.8951 66.3998 38.4131 66.3998C42.0262 66.5998 45.5443 66.6998 48.8721 66.7998Z" fill="#112E45"/>
<path d="M144.905 66.7998C144.905 66.7998 135.492 66.7998 123.987 66.7998C112.482 66.7998 103.069 66.7998 103.069 66.7998C103.069 74.3998 112.482 80.5998 123.987 80.5998C135.492 80.5998 144.905 74.4998 144.905 66.7998Z" fill="#016DF4"/>
<path d="M144.81 66.8002C142.813 62.9002 140.911 59.0002 139.105 55.0002C137.298 51.0002 135.492 47.1002 133.875 43.0002C132.259 39.0002 130.643 34.9002 129.026 30.9002C127.315 26.9002 125.508 22.9002 123.607 19.0002H124.367C122.751 23.1002 121.134 27.1002 119.423 31.1002C117.711 35.1002 116 39.1002 114.289 43.1002C112.482 47.1002 110.675 51.0002 108.869 55.0002C107.062 58.9002 105.161 62.9002 103.164 66.8002C103.164 66.8002 103.069 66.9002 103.069 66.8002C103.069 66.8002 102.974 66.7002 103.069 66.7002C104.59 62.6002 106.207 58.5002 107.823 54.5002C109.439 50.5002 111.151 46.4002 112.862 42.4002C114.574 38.4002 116.38 34.4002 118.187 30.5002C119.993 26.5002 121.8 22.6002 123.702 18.7002C123.797 18.5002 124.082 18.4002 124.272 18.5002C124.367 18.5002 124.462 18.6002 124.462 18.7002C126.079 22.7002 127.79 26.8002 129.502 30.8002C131.308 34.8002 133.21 38.7002 135.111 42.6002C136.918 46.6002 138.63 50.6002 140.341 54.6002C141.957 58.6002 143.574 62.7002 145.095 66.8002C145 66.8002 145 66.9002 144.81 66.8002C144.905 66.9002 144.905 66.9002 144.81 66.8002Z" fill="#112E45"/>
<path d="M144.905 66.8998L134.351 67.1998C130.928 67.1998 127.505 67.2998 123.987 67.2998C120.469 67.2998 117.046 67.1998 113.528 67.0998C110.01 66.9998 106.587 66.9998 103.069 66.9998L103.259 66.7998C103.259 69.0998 104.305 71.3998 105.731 73.0998C107.157 74.7998 109.059 76.1998 111.056 77.1998C115.049 79.2998 119.518 80.0998 123.987 80.0998C126.174 80.0998 128.456 79.8998 130.643 79.3998C132.829 78.8998 134.921 78.1998 136.918 77.1998C138.915 76.1998 140.816 74.8998 142.243 73.0998C142.908 72.1998 143.574 71.2998 144.049 70.1998C144.334 69.6998 144.43 69.0998 144.62 68.4998C144.715 68.1998 144.715 67.8998 144.81 67.6998L144.905 66.8998ZM144.905 66.7998C145 69.2998 144.049 71.5998 142.623 73.4998C141.197 75.3998 139.295 76.8998 137.203 77.9998C133.115 80.2998 128.456 81.1998 123.892 81.1998C121.61 81.1998 119.328 80.8998 117.046 80.3998C114.764 79.8998 112.577 79.0998 110.58 77.9998C108.584 76.8998 106.682 75.3998 105.161 73.4998C103.734 71.5998 102.784 69.2998 102.784 66.7998C102.784 66.6998 102.879 66.5998 102.974 66.5998C106.492 66.5998 109.915 66.5998 113.433 66.4998C116.951 66.3998 120.374 66.2998 123.892 66.2998C127.41 66.2998 130.928 66.3998 134.446 66.3998C138.059 66.5998 141.577 66.6998 144.905 66.7998Z" fill="#112E45"/>
<path d="M27.9541 20.8999C29.0043 20.8999 29.8557 20.0045 29.8557 18.8999C29.8557 17.7953 29.0043 16.8999 27.9541 16.8999C26.9039 16.8999 26.0525 17.7953 26.0525 18.8999C26.0525 20.0045 26.9039 20.8999 27.9541 20.8999Z" fill="#112E45"/>
<path d="M27.9541 20.8998C26.9082 20.8998 25.9574 19.9998 25.9574 18.8998C25.9574 18.2998 26.1475 17.7998 26.5279 17.3998C26.9082 16.9998 27.4787 16.7998 27.9541 16.7998C29.0951 16.7998 30.0459 17.7998 29.9508 18.9998C29.9508 19.9998 29 20.9998 27.9541 20.8998ZM27.9541 20.8998C29 20.8998 29.8557 19.8998 29.7607 18.8998C29.7607 17.8998 28.9049 16.9998 27.9541 17.0998C27.0033 17.0998 26.1475 17.8998 26.1475 18.8998C26.1475 19.3998 26.3377 19.8998 26.623 20.2998C27.0033 20.6998 27.4787 20.8998 27.9541 20.8998Z" fill="#112E45"/>
<path d="M123.987 20.8999C125.037 20.8999 125.889 20.0045 125.889 18.8999C125.889 17.7953 125.037 16.8999 123.987 16.8999C122.937 16.8999 122.085 17.7953 122.085 18.8999C122.085 20.0045 122.937 20.8999 123.987 20.8999Z" fill="#112E45"/>
<path d="M123.987 20.8998C122.941 20.8998 121.99 19.9998 121.99 18.8998C121.99 18.2998 122.18 17.7998 122.561 17.3998C122.941 16.9998 123.511 16.7998 123.987 16.7998C125.128 16.7998 126.079 17.7998 125.984 18.9998C125.984 19.9998 125.033 20.9998 123.987 20.8998ZM123.987 20.8998C125.033 20.8998 125.889 19.8998 125.793 18.8998C125.793 17.8998 124.938 16.9998 123.987 17.0998C123.036 17.0998 122.18 17.8998 122.18 18.8998C122.18 19.3998 122.37 19.8998 122.656 20.2998C123.036 20.6998 123.511 20.8998 123.987 20.8998Z" fill="#112E45"/>
<path d="M79.0131 28.3001V39.0001V52.6001C79.1082 70.7001 79.2984 88.8001 79.5836 107.3L72.2623 107.1C72.4525 98.1001 72.5476 89.0001 72.5476 80.0001C72.6426 70.9001 72.6426 61.8001 72.4525 52.7001L72.3574 39.0001L72.2623 28.2001C72.0721 28.1001 71.9771 28.1001 71.882 28.0001L71.7869 39.0001L71.5967 52.7001C71.5017 61.8001 71.5016 70.9001 71.5016 80.0001C71.5016 89.1001 71.5967 98.2001 71.7869 107.3C71.7869 107.4 71.882 107.5 71.9771 107.5L79.5836 107.3C79.8689 89.4001 80.1541 71.1001 80.1541 52.7001V38.9001L80.059 27.6001C79.8689 28.0001 79.4885 28.2001 79.0131 28.3001Z" fill="#112E45"/>
<path d="M71.7869 9.9C71.9771 9.8 72.1672 9.7 72.3574 9.6L72.4525 4.9C72.4525 4.3 72.4525 3.8 72.5476 3.3C72.6426 2.8 72.8328 2.3 73.2131 2C73.8787 1.2 74.8295 0.8 75.8754 0.8C76.8262 0.8 77.7771 1.3 78.4426 2C78.7279 2.4 79.0131 2.8 79.1082 3.3C79.2033 3.5 79.2033 3.8 79.2033 4V4.8V9.4C79.5836 9.5 79.8689 9.7 80.2492 9.9L80.1541 4.8V3.9C80.1541 3.6 80.059 3.3 79.9639 2.9C79.7738 2.3 79.4885 1.7 79.1082 1.2C78.2525 0.5 77.0164 0 75.8754 0C74.7344 0 73.4984 0.5 72.7377 1.5C72.3574 2 72.0721 2.5 71.882 3.1C71.7869 3.4 71.7869 3.7 71.7869 4V4.9V9.9Z" fill="#112E45"/>
<path d="M9.22295 53.9C9.31803 53.7 9.31803 53.5 9.22295 53.5C9.03278 53.5 8.84262 53.7 8.74754 54L0.190159 69.2C-0.0950865 69.7 -4.49979e-06 70.1 0.285241 70C0.570487 69.9 1.0459 69.5 1.33114 69.1L9.22295 53.9Z" fill="#112E45"/>
<path d="M7.03607 54.9C7.03607 54.8 7.03607 54.8 7.03607 54.7C6.94099 54.6 6.94099 54.6 6.84591 54.7L4.46886 57.8C4.37378 57.9 4.46886 58.1 4.56394 58.2C4.65902 58.3 4.84919 58.3 4.84919 58.2L7.03607 54.9Z" fill="#112E45"/>
<path d="M135.111 37.2002C135.207 37.3002 135.302 37.4002 135.397 37.3002C135.492 37.2002 135.492 37.0002 135.397 36.9002L131.403 27.4002C131.308 27.1002 131.023 27.0002 130.833 27.2002C130.643 27.4002 130.643 27.7002 130.833 28.0002L135.111 37.2002Z" fill="#112E45"/>
<path d="M138.915 40.5C139.01 40.6 139.105 40.6999 139.105 40.5999C139.2 40.4999 139.105 40.3 139.105 40.2L135.302 31.1C135.207 30.8 135.016 30.7 134.921 30.9C134.826 31.1 134.826 31.4 135.016 31.7L138.915 40.5Z" fill="#112E45"/>
</g>
<defs>
<clipPath id="clip0_481_12885">
<rect width="145" height="129" fill="white"/>
</clipPath>
</defs>
</svg>
