<svg width="32" height="32" viewBox="0 0 32 32" fill="none" xmlns="http://www.w3.org/2000/svg">
<path d="M29.8414 1.40983L1.64498 16.6655C1.54758 16.7165 1.46665 16.794 1.41156 16.8891C1.35648 16.9842 1.3295 17.093 1.33377 17.2028C1.33803 17.3126 1.37335 17.4189 1.43564 17.5095C1.49793 17.6 1.58463 17.671 1.68568 17.7143L6.49941 19.5272C6.7788 19.6302 7.00642 19.8389 7.1331 20.1083L10.8626 27.8102C10.9323 28.1502 11.5602 28.2402 11.5689 27.8945L10.9876 21.5348C11.0212 21.0637 11.201 20.6148 11.5021 20.2507L26.1264 5.93046C26.1676 5.89031 26.2181 5.86104 26.2734 5.84532C26.3288 5.82959 26.3871 5.8279 26.4433 5.8404C26.4987 5.85273 26.5499 5.87907 26.5922 5.91689C26.6345 5.95471 26.6663 6.00274 26.6847 6.05639C26.7031 6.11004 26.7074 6.16751 26.6972 6.22329C26.687 6.27908 26.6626 6.3313 26.6264 6.37497L14.0194 21.7905C13.7532 22.1669 13.5835 22.6028 13.5253 23.0601L12.7695 28.554C12.8334 29.0334 13.2084 29.2164 13.5107 28.7864L16.2257 25.5906C16.3153 25.4687 16.449 25.3866 16.5983 25.3616C16.7475 25.3366 16.9007 25.3708 17.0251 25.4569L24.0248 30.5557C24.1014 30.6125 24.1911 30.6489 24.2855 30.6616C24.38 30.6742 24.4762 30.6628 24.565 30.6283C24.6538 30.5937 24.7325 30.5372 24.7936 30.4641C24.8546 30.391 24.8962 30.3035 24.9143 30.21L30.6553 2.02865C30.6766 1.92238 30.6678 1.81227 30.6298 1.71075C30.5918 1.60923 30.5262 1.52036 30.4403 1.45417C30.3544 1.38799 30.2517 1.34712 30.1438 1.33621C30.036 1.32529 29.9272 1.34475 29.8297 1.3924L29.8414 1.40983Z" fill="#112E45"/>
</svg>
