<svg width="24" height="24" viewBox="0 0 24 24" fill="none" xmlns="http://www.w3.org/2000/svg">
<path d="M23.1538 5.13092C22.33 5.49231 21.4522 5.73185 20.5369 5.84815C21.4785 5.286 22.1971 4.40262 22.5349 3.33785C21.6571 3.86123 20.6878 4.23092 19.6549 4.43723C18.8214 3.54969 17.6334 3 16.3374 3C13.8229 3 11.7986 5.04092 11.7986 7.54292C11.7986 7.90292 11.8291 8.24908 11.9038 8.57862C8.128 8.39446 4.78692 6.58477 2.54246 3.828C2.15062 4.50785 1.92077 5.286 1.92077 6.12369C1.92077 7.69662 2.73077 9.09092 3.93815 9.89815C3.20846 9.88431 2.49262 9.67246 1.88615 9.33877C1.88615 9.35262 1.88615 9.37062 1.88615 9.38862C1.88615 11.5957 3.46046 13.4289 5.52492 13.8512C5.15523 13.9523 4.75231 14.0008 4.33415 14.0008C4.04338 14.0008 3.74985 13.9842 3.47431 13.9232C4.06277 15.7218 5.73262 17.0442 7.71815 17.0871C6.17292 18.2958 4.21092 19.0242 2.08692 19.0242C1.71446 19.0242 1.35723 19.0075 1 18.9618C3.01185 20.2592 5.39615 21 7.96739 21C16.3249 21 20.8942 14.0769 20.8942 8.076C20.8942 7.87523 20.8872 7.68138 20.8775 7.48892C21.7789 6.84923 22.5363 6.05031 23.1538 5.13092Z" fill="#00E497"/>
</svg>
