<svg width="187" height="12" viewBox="0 0 187 12" fill="none" xmlns="http://www.w3.org/2000/svg">
<path d="M172.172 1.47692C168.116 1.2 163.99 0.923077 159.864 0.646154C158.536 0.553846 157.137 0.553846 155.808 0.461538C152.871 0.369231 149.934 0.276923 146.997 0.184615C145.388 0.0923077 143.71 0.0923077 142.102 0C141.612 0 141.123 0 140.703 0C139.654 0 138.605 0 137.486 0C132.661 0 127.836 0 123.01 0C121.891 0 120.702 0 119.584 0.0923077C116.716 0.184615 113.919 0.184615 111.052 0.276923C107.835 0.369231 104.618 0.369231 101.401 0.461538C96.2263 0.646154 90.9814 0.830769 85.8065 1.01538C82.7994 1.10769 79.7923 1.2 76.7852 1.29231C71.6103 1.56923 66.4353 1.84615 61.2604 2.12308C58.3931 2.30769 55.5959 2.4 52.7287 2.58462C47.3439 3.04615 41.9591 3.41538 36.5744 3.78462C33.7072 3.96923 30.84 4.15385 27.9728 4.43077C22.6579 4.98462 17.2732 5.63077 11.9584 6.27692C10.8394 6.36923 9.6506 6.55385 8.46176 6.64615C6.22394 6.92308 3.91619 7.38462 1.60843 7.75385C1.46857 7.75385 1.32871 7.84615 1.18884 7.84615C0.909115 7.84615 0.699319 8.03077 0.489523 8.30769C0.139864 8.76923 0 9.32308 0 9.87692C0 10.4308 0.139864 10.9846 0.489523 11.3538C0.769251 11.7231 1.25877 12 1.60843 12C4.40571 11.6308 7.13305 11.1692 9.93033 10.8C12.5178 10.5231 15.1053 10.2462 17.6928 9.96923C20.49 9.69231 23.2873 9.32308 26.1545 9.04615C27.2734 8.95385 28.3924 8.76923 29.5812 8.67692C33.9869 8.4 38.3227 8.03077 42.7284 7.75385C45.4557 7.56923 48.1831 7.38461 50.9104 7.2C52.0293 7.10769 53.1483 7.01538 54.2672 6.92308C58.6029 6.64615 62.9387 6.46154 67.2745 6.18462C69.9319 6.09231 72.5194 5.90769 75.1768 5.81538C76.0859 5.81538 76.9251 5.72308 77.8342 5.72308C82.5197 5.53846 87.2051 5.44615 91.8905 5.26154C94.478 5.16923 97.1354 5.07692 99.7229 4.98462C100.632 4.98462 101.611 4.89231 102.52 4.89231C107.345 4.8 112.171 4.8 117.066 4.70769C120.073 4.70769 123.08 4.61538 126.087 4.61538C131.192 4.61538 136.367 4.61538 141.472 4.70769C142.451 4.70769 143.5 4.8 144.479 4.8C147.347 4.89231 150.144 4.98462 153.011 5.16923C155.109 5.26154 157.277 5.35385 159.375 5.44615C160.913 5.53846 162.382 5.63077 163.92 5.72308C168.326 6 172.802 6.36923 177.207 6.73846C178.326 6.83077 179.445 6.92308 180.564 7.01538C181.753 7.10769 183.012 7.2 184.201 7.38462C184.41 7.38462 184.55 7.47692 184.76 7.56923C185.25 7.66154 185.669 7.66154 186.089 7.29231C186.508 7.01538 186.788 6.46154 186.928 5.90769C187.208 4.70769 186.648 3.41538 185.669 3.04615C184.83 2.76923 183.991 2.67692 183.222 2.49231C182.662 2.4 182.103 2.30769 181.543 2.30769C180.424 2.12308 179.305 2.12308 178.256 1.93846C176.298 1.84615 174.2 1.66154 172.172 1.47692Z" fill="#016DF4"/>
</svg>
